<svg width="935" height="243" viewBox="0 0 935 243" fill="none" xmlns="http://www.w3.org/2000/svg">
<path d="M280.4 71.2C282.9 65.5 280.4 58.7 274.7 56.1C269 53.6 262.2 56.1 259.6 61.8L222 146.3L176.5 61.1C173.5 55.6 166.7 53.5 161.2 56.4C155.7 59.4 153.6 66.2 156.5 71.7L210.3 172.7L186.5 226.2C184 231.9 186.5 238.7 192.2 241.3C193.7 241.9 195.2 242.4 196.9 242.4C201.1 242.4 205.4 239.9 207.3 235.6L232.6 178.9C233.2 177.8 233.9 176.6 234.1 175.5L280.4 71.2ZM428.8 56.3C423.1 53.8 416.3 56.1 413.7 61.8L373.6 148.5L333.4 61.8C330.9 56.1 324.1 53.7 318.3 56.3C312.6 58.8 310.2 65.6 312.8 71.4L363.4 180.4C363.6 180.8 363.8 181.2 364 181.7L364.2 181.9C364.4 182.3 364.6 182.5 365 183C365 183 365 183 365.2 183.2C365.4 183.6 365.8 183.8 366.3 184.3L366.5 184.5C366.7 184.7 367.1 184.9 367.4 185.1L367.6 185.3C368 185.5 368.5 185.7 368.7 185.9C368.9 185.9 368.9 185.9 369.1 186.1C369.5 186.3 369.7 186.3 370.2 186.5C370.4 186.5 370.4 186.5 370.6 186.7C371 186.7 371.2 186.9 371.7 186.9C371.9 186.9 371.9 186.9 372.1 186.9C372.5 186.9 373.2 186.9 373.6 186.9C374 186.9 374.7 186.9 375.1 186.9C375.3 186.9 375.3 186.9 375.5 186.9C375.9 186.9 376.1 186.7 376.6 186.7C376.8 186.7 376.8 186.7 377 186.5C377.4 186.3 377.6 186.3 378.1 186.1C378.3 186.1 378.3 186.1 378.5 185.9C378.9 185.7 379.3 185.5 379.6 185.3L379.8 185.1C380 184.9 380.4 184.7 380.7 184.5L380.9 184.3C381.3 184.1 381.5 183.7 382 183.2C382 183.2 382 183.2 382.2 183C382.4 182.6 382.8 182.4 383.1 181.9L383.3 181.7C383.5 181.3 383.7 180.9 383.9 180.4L434.5 71.4C437.1 65.6 434.5 58.8 428.8 56.3ZM594 121.5C594 85.2 564.5 55.6 528.1 55.6C491.8 55.6 462.2 85.1 462.2 121.5C462.2 157.8 491.7 187.3 528.1 187.3C544.7 187.3 559.8 181.1 571.2 171.2V175.9C571.2 182.3 576.3 187.4 582.7 187.4C589.1 187.4 594.2 182.3 594.2 175.9V121.9C594 121.7 594 121.5 594 121.5ZM528 164.6C504.2 164.6 484.9 145.3 484.9 121.5C484.9 97.7 504.2 78.4 528 78.4C551.8 78.4 571.1 97.7 571.1 121.5C571.1 145.3 551.8 164.6 528 164.6ZM710.5 56.1C707.5 55.7 704.3 55.5 701.4 55.5C665.1 55.5 635.5 85 635.5 121.4C635.5 121.6 635.5 121.6 635.5 121.8C635.5 122 635.5 122 635.5 122.2V175.9C635.5 182.3 640.6 187.4 647 187.4C653.4 187.4 658.5 182.3 658.5 175.9V122.2C658.5 122 658.5 122 658.5 121.8C658.5 121.6 658.5 121.6 658.5 121.4C658.5 97.6 677.8 78.3 701.6 78.3C703.7 78.3 705.6 78.5 707.5 78.7C713.7 79.5 719.4 75.3 720.2 68.9C721.1 62.9 716.6 56.9 710.5 56.1ZM804.1 55C767.8 55 738.2 84.5 738.2 120.8C738.2 157.1 767.7 186.7 804.1 186.7C840.4 186.7 869.9 157.2 869.9 120.8C870 84.5 840.5 55 804.1 55ZM804.1 163.8C780.3 163.8 761 144.5 761 120.7C761 96.9 780.3 77.6 804.1 77.6C827.9 77.6 847.2 96.9 847.2 120.7C847.3 144.4 827.9 163.8 804.1 163.8ZM919.8 161.4C920.6 160.3 920.9 158.9 920.9 157.3C920.9 155.7 920.5 154.4 919.8 153.4C919.1 152.4 918.2 151.6 917.2 151.1C916.2 150.6 915.2 150.3 914.3 150.3H903.3V172H908V164.7H912.7L916.5 172H921.7L917.2 163.6C918.3 163.1 919.1 162.4 919.8 161.4ZM933.2 152.4C932 149.6 930.3 147.1 928.2 144.9C926 142.8 923.5 141.1 920.7 139.9C917.8 138.6 914.8 138 911.5 138C908.2 138 905.2 138.6 902.4 139.8C899.5 141 897 142.7 894.9 144.9C892.7 147 891 149.5 889.8 152.4C888.6 155.2 888 158.2 888 161.5C888 164.8 888.6 167.8 889.8 170.6C891 173.4 892.7 175.9 894.8 178.1C897 180.3 899.5 181.9 902.3 183.1C905.1 184.3 908.2 184.9 911.4 184.9C914.6 184.9 917.7 184.3 920.5 183.1C923.3 181.9 925.8 180.2 928 178.1C930.2 175.9 931.8 173.5 933 170.6C934.2 167.8 934.8 164.7 934.8 161.5C934.8 158.3 934.4 155.2 933.2 152.4ZM927 170.5C925.4 173.2 923.2 175.4 920.5 177C917.8 178.6 914.8 179.4 911.5 179.4C908.2 179.4 905.2 178.6 902.5 177C899.8 175.4 897.6 173.2 896 170.5C894.4 167.8 893.6 164.8 893.6 161.5C893.6 158.2 894.4 155.2 896 152.5C897.6 149.8 899.8 147.6 902.5 146C905.2 144.4 908.2 143.6 911.5 143.6C914.8 143.6 917.8 144.4 920.5 146C923.2 147.6 925.4 149.8 927 152.5C928.6 155.2 929.4 158.2 929.4 161.5C929.4 164.8 928.6 167.8 927 170.5ZM908 153.9H912.5C913.1 153.9 913.7 154.1 914.5 154.6C915.3 155.1 915.6 156 915.6 157.3C915.6 158.6 915.2 159.6 914.5 160.2C913.8 160.8 913.1 161.2 912.4 161.2H908V153.9ZM66.1 55.4C49.5 55.4 34.4 61.6 23 71.6V11.5C23 5.1 17.9 0 11.5 0C5.1 0 0 5.1 0 11.5V123C0.8 158.7 30.2 187.4 65.9 187.4C102.2 187.4 131.8 157.9 131.8 121.5C131.7 85.2 102.4 55.4 66.1 55.4ZM66.1 164.6C42.3 164.6 23 145.3 23 121.5C22.9 97.7 42.3 78.4 66.1 78.4C89.9 78.4 109.2 97.7 109.2 121.5C109.2 145.3 89.9 164.6 66.1 164.6Z" fill="#3A50E4"/>
</svg>
