<svg width="1269" height="529" viewBox="0 0 1269 529" fill="none" xmlns="http://www.w3.org/2000/svg">
<rect width="1269" height="529" rx="80" fill="#3A50E4"/>
<path d="M447.4 214.2C449.9 208.5 447.4 201.7 441.7 199.1C436 196.6 429.2 199.1 426.6 204.8L389 289.3L343.5 204.1C340.5 198.6 333.7 196.5 328.2 199.4C322.7 202.4 320.6 209.2 323.5 214.7L377.3 315.7L353.5 369.2C351 374.9 353.5 381.7 359.2 384.3C360.7 384.9 362.2 385.4 363.9 385.4C368.1 385.4 372.4 382.9 374.3 378.6L399.6 321.9C400.2 320.8 400.9 319.6 401.1 318.5L447.4 214.2ZM595.8 199.3C590.1 196.8 583.3 199.1 580.7 204.8L540.6 291.5L500.4 204.8C497.9 199.1 491.1 196.7 485.3 199.3C479.6 201.8 477.2 208.6 479.8 214.4L530.4 323.4C530.6 323.8 530.8 324.2 531 324.7L531.2 324.9C531.4 325.3 531.6 325.5 532 326C532 326 532 326 532.2 326.2C532.4 326.6 532.8 326.8 533.3 327.3L533.5 327.5C533.7 327.7 534.1 327.9 534.4 328.1L534.6 328.3C535 328.5 535.5 328.7 535.7 328.9C535.9 328.9 535.9 328.9 536.1 329.1C536.5 329.3 536.7 329.3 537.2 329.5C537.4 329.5 537.4 329.5 537.6 329.7C538 329.7 538.2 329.9 538.7 329.9C538.9 329.9 538.9 329.9 539.1 329.9C539.5 329.9 540.2 329.9 540.6 329.9C541 329.9 541.7 329.9 542.1 329.9C542.3 329.9 542.3 329.9 542.5 329.9C542.9 329.9 543.1 329.7 543.6 329.7C543.8 329.7 543.8 329.7 544 329.5C544.4 329.3 544.6 329.3 545.1 329.1C545.3 329.1 545.3 329.1 545.5 328.9C545.9 328.7 546.3 328.5 546.6 328.3L546.8 328.1C547 327.9 547.4 327.7 547.7 327.5L547.9 327.3C548.3 327.1 548.5 326.7 549 326.2C549 326.2 549 326.2 549.2 326C549.4 325.6 549.8 325.4 550.1 324.9L550.3 324.7C550.5 324.3 550.7 323.9 550.9 323.4L601.5 214.4C604.1 208.6 601.5 201.8 595.8 199.3ZM761 264.5C761 228.2 731.5 198.6 695.1 198.6C658.8 198.6 629.2 228.1 629.2 264.5C629.2 300.8 658.7 330.3 695.1 330.3C711.7 330.3 726.8 324.1 738.2 314.2V318.9C738.2 325.3 743.3 330.4 749.7 330.4C756.1 330.4 761.2 325.3 761.2 318.9V264.9C761 264.7 761 264.5 761 264.5ZM695 307.6C671.2 307.6 651.9 288.3 651.9 264.5C651.9 240.7 671.2 221.4 695 221.4C718.8 221.4 738.1 240.7 738.1 264.5C738.1 288.3 718.8 307.6 695 307.6ZM877.5 199.1C874.5 198.7 871.3 198.5 868.4 198.5C832.1 198.5 802.5 228 802.5 264.4C802.5 264.6 802.5 264.6 802.5 264.8C802.5 265 802.5 265 802.5 265.2V318.9C802.5 325.3 807.6 330.4 814 330.4C820.4 330.4 825.5 325.3 825.5 318.9V265.2C825.5 265 825.5 265 825.5 264.8C825.5 264.6 825.5 264.6 825.5 264.4C825.5 240.6 844.8 221.3 868.6 221.3C870.7 221.3 872.6 221.5 874.5 221.7C880.7 222.5 886.4 218.3 887.2 211.9C888.1 205.9 883.6 199.9 877.5 199.1ZM971.1 198C934.8 198 905.2 227.5 905.2 263.8C905.2 300.1 934.7 329.7 971.1 329.7C1007.4 329.7 1036.9 300.2 1036.9 263.8C1037 227.5 1007.5 198 971.1 198ZM971.1 306.8C947.3 306.8 928 287.5 928 263.7C928 239.9 947.3 220.6 971.1 220.6C994.9 220.6 1014.2 239.9 1014.2 263.7C1014.3 287.4 994.9 306.8 971.1 306.8ZM1086.8 304.4C1087.6 303.3 1087.9 301.9 1087.9 300.3C1087.9 298.7 1087.5 297.4 1086.8 296.4C1086.1 295.4 1085.2 294.6 1084.2 294.1C1083.2 293.6 1082.2 293.3 1081.3 293.3H1070.3V315H1075V307.7H1079.7L1083.5 315H1088.7L1084.2 306.6C1085.3 306.1 1086.1 305.4 1086.8 304.4ZM1100.2 295.4C1099 292.6 1097.3 290.1 1095.2 287.9C1093 285.8 1090.5 284.1 1087.7 282.9C1084.8 281.6 1081.8 281 1078.5 281C1075.2 281 1072.2 281.6 1069.4 282.8C1066.5 284 1064 285.7 1061.9 287.9C1059.7 290 1058 292.5 1056.8 295.4C1055.6 298.2 1055 301.2 1055 304.5C1055 307.8 1055.6 310.8 1056.8 313.6C1058 316.4 1059.7 318.9 1061.8 321.1C1064 323.3 1066.5 324.9 1069.3 326.1C1072.1 327.3 1075.2 327.9 1078.4 327.9C1081.6 327.9 1084.7 327.3 1087.5 326.1C1090.3 324.9 1092.8 323.2 1095 321.1C1097.2 318.9 1098.8 316.5 1100 313.6C1101.2 310.8 1101.8 307.7 1101.8 304.5C1101.8 301.3 1101.4 298.2 1100.2 295.4ZM1094 313.5C1092.4 316.2 1090.2 318.4 1087.5 320C1084.8 321.6 1081.8 322.4 1078.5 322.4C1075.2 322.4 1072.2 321.6 1069.5 320C1066.8 318.4 1064.6 316.2 1063 313.5C1061.4 310.8 1060.6 307.8 1060.6 304.5C1060.6 301.2 1061.4 298.2 1063 295.5C1064.6 292.8 1066.8 290.6 1069.5 289C1072.2 287.4 1075.2 286.6 1078.5 286.6C1081.8 286.6 1084.8 287.4 1087.5 289C1090.2 290.6 1092.4 292.8 1094 295.5C1095.6 298.2 1096.4 301.2 1096.4 304.5C1096.4 307.8 1095.6 310.8 1094 313.5ZM1075 296.9H1079.5C1080.1 296.9 1080.7 297.1 1081.5 297.6C1082.3 298.1 1082.6 299 1082.6 300.3C1082.6 301.6 1082.2 302.6 1081.5 303.2C1080.8 303.8 1080.1 304.2 1079.4 304.2H1075V296.9ZM233.1 198.4C216.5 198.4 201.4 204.6 190 214.6V154.5C190 148.1 184.9 143 178.5 143C172.1 143 167 148.1 167 154.5V266C167.8 301.7 197.2 330.4 232.9 330.4C269.2 330.4 298.8 300.9 298.8 264.5C298.7 228.2 269.4 198.4 233.1 198.4ZM233.1 307.6C209.3 307.6 190 288.3 190 264.5C189.9 240.7 209.3 221.4 233.1 221.4C256.9 221.4 276.2 240.7 276.2 264.5C276.2 288.3 256.9 307.6 233.1 307.6Z" fill="white"/>
</svg>
