<svg width="16" height="16" viewBox="0 0 16 16" fill="none" xmlns="http://www.w3.org/2000/svg">
<path d="M4.625 7.25H2.45C2.02996 7.25 1.81994 7.25 1.65951 7.33175C1.51839 7.40365 1.40365 7.51839 1.33175 7.65951C1.25 7.81994 1.25 8.02996 1.25 8.45V14.75M11.375 7.25H13.55C13.97 7.25 14.1801 7.25 14.3405 7.33175C14.4816 7.40365 14.5963 7.51839 14.6683 7.65951C14.75 7.81994 14.75 8.02996 14.75 8.45V14.75M11.375 14.75V3.65C11.375 2.80992 11.375 2.38988 11.2115 2.06901C11.0677 1.78677 10.8382 1.5573 10.556 1.41349C10.2351 1.25 9.81508 1.25 8.975 1.25H7.025C6.18492 1.25 5.76488 1.25 5.44401 1.41349C5.16177 1.5573 4.9323 1.78677 4.78849 2.06901C4.625 2.38988 4.625 2.80992 4.625 3.65V14.75M15.5 14.75H0.5M7.25 4.25H8.75M7.25 7.25H8.75M7.25 10.25H8.75" stroke="black" stroke-linecap="round" stroke-linejoin="round"/>
</svg>
