<svg width="360" height="360" viewBox="0 0 360 360" fill="none" xmlns="http://www.w3.org/2000/svg">
<rect x="5" y="5" width="350" height="350" rx="75" fill="white"/>
<rect x="5" y="5" width="350" height="350" rx="75" stroke="#EAEAEA" stroke-width="10"/>
<path d="M263.3 247.7C264.1 246.6 264.4 245.2 264.4 243.6C264.4 242 264 240.7 263.3 239.7C262.6 238.7 261.7 237.9 260.7 237.4C259.7 236.9 258.7 236.6 257.8 236.6H246.8V258.3H251.5V251H256.2L260 258.3H265.2L260.7 249.9C261.8 249.4 262.6 248.7 263.3 247.7ZM276.7 238.7C275.5 235.9 273.8 233.4 271.7 231.2C269.5 229.1 267 227.4 264.2 226.2C261.3 224.9 258.3 224.3 255 224.3C251.7 224.3 248.7 224.9 245.9 226.1C243 227.3 240.5 229 238.4 231.2C236.2 233.3 234.5 235.8 233.3 238.7C232.1 241.5 231.5 244.5 231.5 247.8C231.5 251.1 232.1 254.1 233.3 256.9C234.5 259.7 236.2 262.2 238.3 264.4C240.5 266.6 243 268.2 245.8 269.4C248.6 270.6 251.7 271.2 254.9 271.2C258.1 271.2 261.2 270.6 264 269.4C266.8 268.2 269.3 266.5 271.5 264.4C273.7 262.2 275.3 259.8 276.5 256.9C277.7 254.1 278.3 251 278.3 247.8C278.3 244.6 277.9 241.5 276.7 238.7ZM270.5 256.8C268.9 259.5 266.7 261.7 264 263.3C261.3 264.9 258.3 265.7 255 265.7C251.7 265.7 248.7 264.9 246 263.3C243.3 261.7 241.1 259.5 239.5 256.8C237.9 254.1 237.1 251.1 237.1 247.8C237.1 244.5 237.9 241.5 239.5 238.8C241.1 236.1 243.3 233.9 246 232.3C248.7 230.7 251.7 229.9 255 229.9C258.3 229.9 261.3 230.7 264 232.3C266.7 233.9 268.9 236.1 270.5 238.8C272.1 241.5 272.9 244.5 272.9 247.8C272.9 251.1 272.1 254.1 270.5 256.8ZM251.5 240.2H256C256.6 240.2 257.2 240.4 258 240.9C258.8 241.4 259.1 242.3 259.1 243.6C259.1 244.9 258.7 245.9 258 246.5C257.3 247.1 256.6 247.5 255.9 247.5H251.5V240.2ZM147.8 141.7C131.2 141.7 116.1 147.9 104.7 157.9V97.8C104.6 91.4 99.5 86.3 93.2 86.3C86.8 86.3 81.7 91.4 81.7 97.8V209.3C82.5 245 111.9 273.7 147.6 273.7C183.9 273.7 213.5 244.2 213.5 207.8C213.4 171.5 184.1 141.7 147.8 141.7ZM147.8 250.9C124 250.9 104.7 231.6 104.7 207.8C104.7 184 124 164.7 147.8 164.7C171.6 164.7 190.9 184 190.9 207.8C190.9 231.6 171.6 250.9 147.8 250.9Z" fill="#3A50E4"/>
</svg>
