<svg width="90" height="24" viewBox="0 0 90 24" fill="none" xmlns="http://www.w3.org/2000/svg">
<path d="M27.2378 7.74011C27.4753 7.19864 27.2378 6.55269 26.6963 6.30571C26.1548 6.06822 25.5089 6.3057 25.2619 6.84717L21.6901 14.8741L17.3679 6.78067C17.083 6.25821 16.437 6.05872 15.9145 6.3342C15.3921 6.61918 15.1926 7.26514 15.4681 7.78761L20.5787 17.382L18.3179 22.4641C18.0804 23.0056 18.3179 23.6515 18.8593 23.8985C19.0018 23.9555 19.1443 24.003 19.3058 24.003C19.7048 24.003 20.1133 23.7655 20.2937 23.3571L22.6971 17.9709C22.7541 17.8664 22.8206 17.7524 22.8396 17.6479L27.2378 7.74011ZM41.3348 6.3247C40.7934 6.08722 40.1474 6.3057 39.9004 6.84717L36.0912 15.0831L32.2724 6.84717C32.035 6.3057 31.389 6.07772 30.838 6.3247C30.2966 6.56219 30.0686 7.20814 30.3156 7.75911L35.1222 18.1134C35.1412 18.1514 35.1602 18.1894 35.1792 18.2369L35.1982 18.2559C35.2172 18.2939 35.2362 18.3129 35.2742 18.3604C35.2742 18.3604 35.2742 18.3604 35.2932 18.3794C35.3122 18.4174 35.3502 18.4364 35.3977 18.4839L35.4167 18.5029C35.4357 18.5219 35.4737 18.5409 35.5022 18.5599L35.5212 18.5789C35.5592 18.5979 35.6067 18.6169 35.6257 18.6359C35.6447 18.6359 35.6447 18.6359 35.6637 18.6549C35.7017 18.6739 35.7207 18.6739 35.7682 18.6929C35.7872 18.6929 35.7872 18.6929 35.8062 18.7119C35.8442 18.7119 35.8632 18.7309 35.9107 18.7309C35.9297 18.7309 35.9297 18.7309 35.9487 18.7309C35.9867 18.7309 36.0532 18.7309 36.0912 18.7309C36.1292 18.7309 36.1957 18.7309 36.2337 18.7309C36.2527 18.7309 36.2527 18.7309 36.2717 18.7309C36.3097 18.7309 36.3287 18.7119 36.3762 18.7119C36.3952 18.7119 36.3952 18.7119 36.4142 18.6929C36.4522 18.6739 36.4712 18.6739 36.5187 18.6549C36.5377 18.6549 36.5377 18.6549 36.5567 18.6359C36.5947 18.6169 36.6326 18.5979 36.6611 18.5789L36.6801 18.5599C36.6991 18.5409 36.7371 18.5219 36.7656 18.5029L36.7846 18.4839C36.8226 18.4649 36.8416 18.4269 36.8891 18.3794C36.8891 18.3794 36.8891 18.3794 36.9081 18.3604C36.9271 18.3224 36.9651 18.3034 36.9936 18.2559L37.0126 18.2369C37.0316 18.1989 37.0506 18.1609 37.0696 18.1134L41.8763 7.75911C42.1233 7.20814 41.8763 6.56219 41.3348 6.3247ZM57.0278 12.5183C57.0278 9.07002 54.2255 6.25821 50.7677 6.25821C47.3194 6.25821 44.5076 9.06052 44.5076 12.5183C44.5076 15.9666 47.3099 18.7689 50.7677 18.7689C52.3446 18.7689 53.779 18.1799 54.8619 17.2395V17.6859C54.8619 18.2939 55.3464 18.7784 55.9543 18.7784C56.5623 18.7784 57.0468 18.2939 57.0468 17.6859V12.5563C57.0278 12.5373 57.0278 12.5183 57.0278 12.5183ZM50.7582 16.6125C48.4973 16.6125 46.664 14.7791 46.664 12.5183C46.664 10.2574 48.4973 8.42406 50.7582 8.42406C53.019 8.42406 54.8524 10.2574 54.8524 12.5183C54.8524 14.7791 53.019 16.6125 50.7582 16.6125ZM68.0945 6.30571C67.8096 6.26771 67.5056 6.24871 67.2301 6.24871C63.7818 6.24871 60.97 9.05102 60.97 12.5088C60.97 12.5278 60.97 12.5278 60.97 12.5468C60.97 12.5658 60.97 12.5658 60.97 12.5848V17.6859C60.97 18.2939 61.4545 18.7784 62.0624 18.7784C62.6704 18.7784 63.1549 18.2939 63.1549 17.6859V12.5848C63.1549 12.5658 63.1549 12.5658 63.1549 12.5468C63.1549 12.5278 63.1549 12.5278 63.1549 12.5088C63.1549 10.2479 64.9882 8.41456 67.2491 8.41456C67.4486 8.41456 67.6291 8.43356 67.8096 8.45256C68.3985 8.52856 68.94 8.12958 69.016 7.52162C69.1015 6.95166 68.674 6.3817 68.0945 6.30571ZM76.9859 6.20121C73.5377 6.20121 70.7259 9.00352 70.7259 12.4518C70.7259 15.9001 73.5282 18.7119 76.9859 18.7119C80.4342 18.7119 83.2365 15.9096 83.2365 12.4518C83.246 9.00352 80.4437 6.20121 76.9859 6.20121ZM76.9859 16.5365C74.7251 16.5365 72.8917 14.7031 72.8917 12.4423C72.8917 10.1814 74.7251 8.34807 76.9859 8.34807C79.2468 8.34807 81.0802 10.1814 81.0802 12.4423C81.0897 14.6936 79.2468 16.5365 76.9859 16.5365ZM87.9767 16.3085C88.0527 16.204 88.0812 16.0711 88.0812 15.9191C88.0812 15.7671 88.0432 15.6436 87.9767 15.5486C87.9102 15.4536 87.8247 15.3776 87.7297 15.3301C87.6347 15.2826 87.5397 15.2541 87.4542 15.2541H86.4093V17.3155H86.8558V16.622H87.3022L87.6632 17.3155H88.1572L87.7297 16.5175C87.8342 16.47 87.9102 16.4035 87.9767 16.3085ZM89.2496 15.4536C89.1356 15.1876 88.9741 14.9501 88.7747 14.7411C88.5657 14.5417 88.3282 14.3802 88.0622 14.2662C87.7867 14.1427 87.5017 14.0857 87.1883 14.0857C86.8748 14.0857 86.5898 14.1427 86.3238 14.2567C86.0483 14.3707 85.8109 14.5322 85.6114 14.7411C85.4024 14.9406 85.2409 15.1781 85.1269 15.4536C85.0129 15.7196 84.9559 16.0046 84.9559 16.318C84.9559 16.6315 85.0129 16.9165 85.1269 17.1825C85.2409 17.4485 85.4024 17.6859 85.6019 17.8949C85.8109 18.1039 86.0483 18.2559 86.3143 18.3699C86.5803 18.4839 86.8748 18.5409 87.1788 18.5409C87.4827 18.5409 87.7772 18.4839 88.0432 18.3699C88.3092 18.2559 88.5467 18.0944 88.7557 17.8949C88.9646 17.6859 89.1166 17.458 89.2306 17.1825C89.3446 16.9165 89.4016 16.622 89.4016 16.318C89.4016 16.0141 89.3636 15.7196 89.2496 15.4536ZM88.6607 17.173C88.5087 17.4295 88.2997 17.6384 88.0432 17.7904C87.7867 17.9424 87.5017 18.0184 87.1883 18.0184C86.8748 18.0184 86.5898 17.9424 86.3333 17.7904C86.0768 17.6384 85.8678 17.4295 85.7159 17.173C85.5639 16.9165 85.4879 16.6315 85.4879 16.318C85.4879 16.0046 85.5639 15.7196 85.7159 15.4631C85.8678 15.2066 86.0768 14.9976 86.3333 14.8456C86.5898 14.6936 86.8748 14.6176 87.1883 14.6176C87.5017 14.6176 87.7867 14.6936 88.0432 14.8456C88.2997 14.9976 88.5087 15.2066 88.6607 15.4631C88.8127 15.7196 88.8886 16.0046 88.8886 16.318C88.8886 16.6315 88.8127 16.9165 88.6607 17.173ZM86.8558 15.5961H87.2832C87.3402 15.5961 87.3972 15.6151 87.4732 15.6626C87.5492 15.7101 87.5777 15.7956 87.5777 15.9191C87.5777 16.0426 87.5397 16.1375 87.4732 16.1945C87.4067 16.2515 87.3402 16.2895 87.2738 16.2895H86.8558V15.5961ZM6.88064 6.23921C5.30375 6.23921 3.86934 6.82817 2.78642 7.77811V2.06899C2.78642 1.46103 2.30195 0.976562 1.69399 0.976562C1.08603 0.976562 0.601562 1.46103 0.601562 2.06899V12.6608C0.677557 16.0521 3.47037 18.7784 6.86164 18.7784C10.3099 18.7784 13.1217 15.9761 13.1217 12.5183C13.1122 9.07002 10.3289 6.23921 6.88064 6.23921ZM6.88064 16.6125C4.61979 16.6125 2.78642 14.7791 2.78642 12.5183C2.77692 10.2574 4.61979 8.42406 6.88064 8.42406C9.14149 8.42406 10.9749 10.2574 10.9749 12.5183C10.9749 14.7791 9.14149 16.6125 6.88064 16.6125Z" fill="#3A50E4"/>
</svg>
