<svg width="16" height="16" viewBox="0 0 16 16" fill="none" xmlns="http://www.w3.org/2000/svg">
<path d="M8 0.5C8.98491 0.5 9.96018 0.693993 10.8701 1.0709C11.7801 1.44781 12.6069 2.00026 13.3033 2.6967C13.9997 3.39314 14.5522 4.21994 14.9291 5.12988C15.306 6.03982 15.5 7.01509 15.5 8.00001M8 0.5V8M8 0.5C3.85786 0.5 0.5 3.85786 0.5 8C0.5 12.1421 3.85786 15.5 8 15.5C12.1421 15.5 15.5 12.1421 15.5 8.00001M8 0.5C12.1421 0.5 15.5 3.85787 15.5 8.00001M15.5 8.00001L8 8M15.5 8.00001C15.5 9.18358 15.2199 10.3504 14.6825 11.4049C14.1452 12.4595 13.3659 13.3719 12.4084 14.0676L8 8" stroke="black" stroke-linecap="round" stroke-linejoin="round"/>
</svg>
