<svg width="16" height="16" viewBox="0 0 16 16" fill="none" xmlns="http://www.w3.org/2000/svg">
<g clip-path="url(#clip0_3267_10674)">
<path d="M2.66929 14.5437C3.071 14.6654 3.6136 14.6654 4.53594 14.6654H11.4693C12.3916 14.6654 12.9342 14.6654 13.3359 14.5437M2.66929 14.5437C2.58315 14.5176 2.50349 14.4859 2.42796 14.4474C2.05163 14.2556 1.74567 13.9497 1.55392 13.5733C1.33594 13.1455 1.33594 12.5855 1.33594 11.4654V4.53203C1.33594 3.41193 1.33594 2.85187 1.55392 2.42405C1.74567 2.04773 2.05163 1.74176 2.42796 1.55002C2.85578 1.33203 3.41583 1.33203 4.53594 1.33203H11.4693C12.5894 1.33203 13.1494 1.33203 13.5773 1.55002C13.9536 1.74176 14.2595 2.04773 14.4513 2.42405C14.6693 2.85187 14.6693 3.41193 14.6693 4.53203V11.4654C14.6693 12.5855 14.6693 13.1455 14.4513 13.5733C14.2595 13.9497 13.9536 14.2556 13.5773 14.4474C13.5017 14.4859 13.4221 14.5176 13.3359 14.5437M2.66929 14.5437C2.66951 14.0041 2.67274 13.7186 2.72051 13.4785C2.93093 12.4206 3.75786 11.5937 4.8157 11.3833C5.07329 11.332 5.38306 11.332 6.0026 11.332H10.0026C10.6221 11.332 10.9319 11.332 11.1895 11.3833C12.2474 11.5937 13.0743 12.4206 13.2847 13.4785C13.3325 13.7186 13.3357 14.0041 13.3359 14.5437M10.6693 6.33203C10.6693 7.80479 9.47536 8.9987 8.0026 8.9987C6.52984 8.9987 5.33594 7.80479 5.33594 6.33203C5.33594 4.85927 6.52984 3.66536 8.0026 3.66536C9.47536 3.66536 10.6693 4.85927 10.6693 6.33203Z" stroke="#3A50E4" stroke-linecap="round" stroke-linejoin="round"/>
</g>
<defs>
<clipPath id="clip0_3267_10674">
<rect width="16" height="16" fill="white"/>
</clipPath>
</defs>
</svg>
