<svg width="16" height="16" viewBox="0 0 16 16" fill="none" xmlns="http://www.w3.org/2000/svg">
<g clip-path="url(#clip0_3267_10662)">
<path d="M8.0026 1.33203C8.87808 1.33203 9.74499 1.50447 10.5538 1.8395C11.3627 2.17453 12.0976 2.6656 12.7167 3.28465C13.3357 3.90371 13.8268 4.63864 14.1618 5.44748C14.4968 6.25632 14.6693 7.12322 14.6693 7.9987M8.0026 1.33203V7.9987M8.0026 1.33203C4.32071 1.33203 1.33594 4.3168 1.33594 7.9987C1.33594 11.6806 4.32071 14.6654 8.0026 14.6654C11.6845 14.6654 14.6693 11.6806 14.6693 7.9987M8.0026 1.33203C11.6845 1.33203 14.6693 4.3168 14.6693 7.9987M14.6693 7.9987L8.0026 7.9987M14.6693 7.9987C14.6693 9.05077 14.4203 10.0879 13.9426 11.0253C13.465 11.9627 12.7723 12.7738 11.9212 13.3921L8.0026 7.9987" stroke="#3A50E4" stroke-linecap="round" stroke-linejoin="round"/>
</g>
<defs>
<clipPath id="clip0_3267_10662">
<rect width="16" height="16" fill="white"/>
</clipPath>
</defs>
</svg>
