<svg width="12" height="12" viewBox="0 0 12 12" fill="none" xmlns="http://www.w3.org/2000/svg">
<path d="M5.99998 11.1671H11.25M0.75 11.1671H1.72682C2.01217 11.1671 2.15485 11.1671 2.28912 11.1349C2.40816 11.1063 2.52196 11.0592 2.62635 10.9952C2.74408 10.9231 2.84497 10.8222 3.04675 10.6204L10.375 3.29212C10.8583 2.80888 10.8583 2.02537 10.375 1.54212C9.89177 1.05888 9.10826 1.05888 8.62501 1.54212L1.29674 8.87039C1.09496 9.07217 0.994069 9.17306 0.92192 9.29079C0.857953 9.39518 0.810815 9.50898 0.782235 9.62802C0.75 9.76229 0.75 9.90497 0.75 10.1903V11.1671Z" stroke="#686868" stroke-linecap="round" stroke-linejoin="round"/>
</svg>
