<svg width="14" height="13" viewBox="0 0 14 13" fill="none" xmlns="http://www.w3.org/2000/svg">
<path d="M13 10.9989L12.3332 11.7282C11.9796 12.1149 11.5001 12.3322 11.0001 12.3322C10.5001 12.3322 10.0205 12.1149 9.66692 11.7282C9.31281 11.3423 8.83332 11.1256 8.33345 11.1256C7.83359 11.1256 7.35409 11.3423 6.99998 11.7282M1 12.3322H2.11636C2.44248 12.3322 2.60554 12.3322 2.75899 12.2953C2.89504 12.2627 3.0251 12.2088 3.1444 12.1357C3.27895 12.0532 3.39425 11.9379 3.62486 11.7073L12 3.33218C12.5523 2.7799 12.5523 1.88447 12 1.33218C11.4477 0.779897 10.5523 0.779898 10 1.33218L1.62484 9.70734C1.39424 9.93795 1.27894 10.0532 1.19648 10.1878C1.12338 10.3071 1.0695 10.4372 1.03684 10.5732C1 10.7267 1 10.8897 1 11.2158V12.3322Z" stroke="#3A50E4" stroke-linecap="round" stroke-linejoin="round"/>
</svg>
