<svg width="32" height="32" viewBox="0 0 32 32" fill="none" xmlns="http://www.w3.org/2000/svg">
<path d="M0 4C0 1.79086 1.79086 0 4 0H28C30.2091 0 32 1.79086 32 4V28C32 30.2091 30.2091 32 28 32H4C1.79086 32 0 30.2091 0 28V4Z" fill="#ECF2FF"/>
<path d="M22 19.9989L21.3332 20.7282C20.9796 21.1149 20.5001 21.3322 20.0001 21.3322C19.5001 21.3322 19.0205 21.1149 18.6669 20.7282C18.3128 20.3423 17.8333 20.1256 17.3335 20.1256C16.8336 20.1256 16.3541 20.3423 16 20.7282M10 21.3322H11.1164C11.4425 21.3322 11.6055 21.3322 11.759 21.2953C11.895 21.2627 12.0251 21.2088 12.1444 21.1357C12.279 21.0532 12.3943 20.9379 12.6249 20.7073L21 12.3322C21.5523 11.7799 21.5523 10.8845 21 10.3322C20.4477 9.7799 19.5523 9.7799 19 10.3322L10.6248 18.7073C10.3942 18.9379 10.2789 19.0532 10.1965 19.1878C10.1234 19.3071 10.0695 19.4372 10.0368 19.5732C10 19.7267 10 19.8897 10 20.2158V21.3322Z" stroke="#3A50E4" stroke-linecap="round" stroke-linejoin="round"/>
</svg>
