<svg width="12" height="16" viewBox="0 0 12 16" fill="none" xmlns="http://www.w3.org/2000/svg">
<path d="M7.33268 1.51172V4.26541C7.33268 4.63878 7.33268 4.82546 7.40534 4.96807C7.46926 5.09351 7.57125 5.1955 7.69669 5.25942C7.8393 5.33208 8.02598 5.33208 8.39935 5.33208H11.153M7.33268 11.332H3.33268M8.66602 8.66536H3.33268M11.3327 6.65751V11.4654C11.3327 12.5855 11.3327 13.1455 11.1147 13.5733C10.9229 13.9497 10.617 14.2556 10.2407 14.4474C9.81284 14.6654 9.25279 14.6654 8.13268 14.6654H3.86602C2.74591 14.6654 2.18586 14.6654 1.75803 14.4474C1.38171 14.2556 1.07575 13.9497 0.884003 13.5733C0.666016 13.1455 0.666016 12.5855 0.666016 11.4654V4.53203C0.666016 3.41193 0.666016 2.85187 0.884003 2.42405C1.07575 2.04773 1.38171 1.74176 1.75803 1.55002C2.18586 1.33203 2.74591 1.33203 3.86602 1.33203H6.0072C6.49638 1.33203 6.74097 1.33203 6.97115 1.38729C7.17522 1.43628 7.37031 1.51709 7.54925 1.62675C7.75108 1.75043 7.92404 1.92339 8.26994 2.26929L10.3954 4.39477C10.7413 4.74068 10.9143 4.91363 11.038 5.11546C11.1476 5.29441 11.2284 5.4895 11.2774 5.69357C11.3327 5.92374 11.3327 6.16833 11.3327 6.65751Z" stroke="black" stroke-linecap="round" stroke-linejoin="round"/>
</svg>
