<svg width="12" height="16" viewBox="0 0 12 16" fill="none" xmlns="http://www.w3.org/2000/svg">
<path d="M7.33268 1.51172V4.26541C7.33268 4.63878 7.33268 4.82546 7.40534 4.96807C7.46926 5.09351 7.57125 5.1955 7.69669 5.25942C7.8393 5.33208 8.02598 5.33208 8.39935 5.33208H11.153M3.99935 10.6654L5.33268 11.9987L8.33268 8.9987M7.33268 1.33203H3.86602C2.74591 1.33203 2.18586 1.33203 1.75803 1.55002C1.38171 1.74176 1.07575 2.04773 0.884003 2.42405C0.666016 2.85187 0.666016 3.41193 0.666016 4.53203V11.4654C0.666016 12.5855 0.666016 13.1455 0.884003 13.5733C1.07575 13.9497 1.38171 14.2556 1.75803 14.4474C2.18586 14.6654 2.74591 14.6654 3.86602 14.6654H8.13268C9.25279 14.6654 9.81284 14.6654 10.2407 14.4474C10.617 14.2556 10.9229 13.9497 11.1147 13.5733C11.3327 13.1455 11.3327 12.5855 11.3327 11.4654V5.33203L7.33268 1.33203Z" stroke="#3A50E4" stroke-linecap="round" stroke-linejoin="round"/>
</svg>
