<svg width="151" height="181" viewBox="0 0 151 181" fill="none" xmlns="http://www.w3.org/2000/svg">
<path d="M109.869 21.6406H0.794922V170.478H109.869V21.6406Z" fill="#FCFCFC"/>
<path d="M114.803 28.5238L5.89258 34.4648L13.8861 180.999L122.796 175.058L114.803 28.5238Z" fill="#E0E0E0"/>
<path d="M143.261 12.1181L34.8633 0L18.5588 145.845L126.956 157.963L143.261 12.1181Z" fill="#F0F0F0"/>
<path d="M150.207 31.7811L41.373 24.5234L31.4695 173.033L140.303 180.291L150.207 31.7811Z" fill="#F9F9F9"/>
<path d="M121.972 43.2234L65.4708 39.4514C64.9403 39.4121 64.5278 38.9406 64.567 38.4102C64.6063 37.8798 65.0778 37.4672 65.6083 37.5065L122.11 41.2785C122.64 41.3178 123.053 41.7893 123.014 42.3197C122.974 42.8502 122.503 43.2431 121.972 43.2234Z" fill="#F9F9F9"/>
<path d="M121.932 43.8688L65.4109 40.1164C64.5072 40.0575 63.8196 39.2716 63.8785 38.3679C63.9375 37.4642 64.7233 36.7766 65.627 36.8356L122.129 40.6076C123.032 40.6665 123.72 41.4523 123.661 42.356C123.622 43.2401 122.836 43.9277 121.932 43.8688ZM65.5484 38.1518C65.3716 38.1322 65.2341 38.2697 65.2145 38.4465C65.1948 38.6233 65.3323 38.7608 65.5091 38.7805L122.011 42.5525C122.187 42.5722 122.325 42.4346 122.345 42.2578C122.364 42.081 122.227 41.9435 122.05 41.9238L65.5484 38.1518Z" fill="#F9F9F9"/>
<path d="M133.56 55.2976L52.3641 49.8753C51.7158 49.836 51.2246 49.2663 51.2639 48.618C51.3032 47.9697 51.8729 47.4785 52.5213 47.5178L133.718 52.9401C134.366 52.9794 134.857 53.5491 134.818 54.1974C134.779 54.8654 134.209 55.3565 133.56 55.2976Z" fill="#F9F9F9"/>
<path d="M132.814 66.3757L51.618 60.9535C50.9697 60.9142 50.4785 60.3444 50.5178 59.6961C50.5571 59.0478 51.1269 58.5567 51.7752 58.596L132.972 64.0182C133.62 64.0575 134.111 64.6272 134.072 65.2755C134.032 65.9239 133.463 66.415 132.814 66.3757Z" fill="#F9F9F9"/>
<path d="M102.992 75.5089L50.8914 72.0316C50.2431 71.9923 49.752 71.4226 49.7913 70.7742C49.8306 70.1259 50.4003 69.6348 51.0486 69.6741L103.149 73.1514C103.798 73.1907 104.289 73.7604 104.25 74.4087C104.21 75.057 103.66 75.5482 102.992 75.5089Z" fill="#F9F9F9"/>
<path d="M131.342 88.5163L50.1454 83.0941C49.497 83.0548 49.0059 82.4851 49.0452 81.8367C49.0845 81.1884 49.6542 80.6973 50.3025 80.7366L131.499 86.1588C132.147 86.1981 132.638 86.7679 132.599 87.4162C132.56 88.0645 131.99 88.5556 131.342 88.5163Z" fill="#F9F9F9"/>
<path d="M130.596 99.5945L49.3992 94.1722C48.7509 94.1329 48.2598 93.5632 48.2991 92.9149C48.3384 92.2666 48.9081 91.7754 49.5564 91.8147L130.753 97.237C131.401 97.2762 131.892 97.846 131.853 98.4943C131.814 99.1426 131.264 99.6338 130.596 99.5945Z" fill="#F9F9F9"/>
<path d="M129.869 110.657L48.6727 105.235C48.0244 105.195 47.5332 104.626 47.5725 103.977C47.6118 103.329 48.1815 102.838 48.8299 102.877L130.026 108.299C130.675 108.339 131.166 108.908 131.126 109.557C131.087 110.205 130.517 110.696 129.869 110.657Z" fill="#F9F9F9"/>
<path d="M129.121 121.735L47.9246 116.313C47.2763 116.274 46.7852 115.704 46.8245 115.056C46.8638 114.407 47.4335 113.916 48.0818 113.955L129.278 119.378C129.926 119.417 130.418 119.987 130.378 120.635C130.339 121.283 129.769 121.774 129.121 121.735Z" fill="#F9F9F9"/>
<path d="M99.2989 130.849L47.1981 127.391C46.5498 127.352 46.0586 126.782 46.0979 126.134C46.1372 125.485 46.7069 124.994 47.3552 125.033L99.4561 128.511C100.104 128.55 100.596 129.12 100.556 129.768C100.517 130.416 99.9669 130.908 99.2989 130.849Z" fill="#F9F9F9"/>
<path d="M83.6018 157.231L45.3709 154.677C44.8798 154.638 44.5065 154.225 44.5458 153.734C44.5851 153.243 44.9976 152.87 45.4888 152.909L83.7197 155.463C84.2108 155.502 84.5841 155.915 84.5448 156.406C84.5252 156.897 84.0929 157.27 83.6018 157.231Z" fill="#F9F9F9"/>
<path d="M115.802 164.879C109.81 164.486 105.272 159.28 105.684 153.308C106.077 147.316 111.283 142.778 117.256 143.19C123.248 143.583 127.786 148.789 127.373 154.762C126.98 160.734 121.774 165.272 115.802 164.879ZM117.177 144.055C111.676 143.681 106.922 147.866 106.549 153.347C106.175 158.848 110.36 163.602 115.841 163.975C121.342 164.349 126.096 160.164 126.47 154.683C126.843 149.202 122.678 144.428 117.177 144.055Z" fill="#F9F9F9"/>
<path d="M115.586 167.983C107.884 167.472 102.05 160.793 102.56 153.111C103.071 145.41 109.751 139.575 117.432 140.086C125.134 140.597 130.968 147.276 130.458 154.958C129.947 162.659 123.287 168.494 115.586 167.983ZM117.393 140.97C110.183 140.498 103.936 145.96 103.464 153.17C102.993 160.38 108.454 166.627 115.664 167.099C122.874 167.57 129.122 162.109 129.593 154.899C130.065 147.689 124.603 141.441 117.393 140.97Z" fill="#F9F9F9"/>
<path d="M109.554 164.086C109.515 164.086 109.476 164.066 109.436 164.047C105.92 161.552 103.975 157.505 104.27 153.202C104.525 149.312 106.647 145.737 109.947 143.654C110.045 143.595 110.183 143.615 110.261 143.713C110.32 143.811 110.301 143.949 110.203 144.028C107.02 146.051 104.977 149.489 104.741 153.241C104.466 157.387 106.332 161.296 109.731 163.693C109.829 163.772 109.849 163.909 109.79 164.007C109.692 164.066 109.633 164.106 109.554 164.086Z" fill="#F9F9F9"/>
<path d="M118.158 166.197C118.06 166.197 117.962 166.118 117.962 166C117.942 165.882 118.021 165.764 118.158 165.745C123.679 164.979 127.962 160.381 128.335 154.802C128.335 154.684 128.453 154.586 128.571 154.586C128.689 154.586 128.787 154.704 128.787 154.822C128.394 160.598 123.954 165.372 118.217 166.177C118.198 166.197 118.178 166.197 118.158 166.197Z" fill="#F9F9F9"/>
<path d="M128.119 151.007C128.021 151.007 127.942 150.948 127.923 150.85C126.567 146.017 122.304 142.559 117.314 142.225C117.196 142.225 117.098 142.107 117.098 141.99C117.098 141.872 117.216 141.773 117.333 141.773C122.52 142.127 126.96 145.722 128.355 150.732C128.394 150.85 128.315 150.968 128.198 151.007C128.178 151.007 128.139 151.007 128.119 151.007Z" fill="#F9F9F9"/>
<path d="M123.62 152.681L111.754 149.145C111.479 149.066 111.342 148.791 111.42 148.516C111.499 148.241 111.774 148.104 112.049 148.182L123.915 151.718C124.19 151.797 124.328 152.072 124.249 152.347C124.171 152.602 123.896 152.76 123.62 152.681Z" fill="#F9F9F9"/>
<path d="M122.07 154.232L112.227 151.285C111.952 151.207 111.814 150.932 111.893 150.657C111.972 150.382 112.247 150.244 112.522 150.323L122.364 153.27C122.639 153.348 122.777 153.623 122.698 153.898C122.62 154.173 122.325 154.311 122.07 154.232Z" fill="#F9F9F9"/>
<path d="M120.989 155.957L112.188 153.324C111.913 153.246 111.775 152.971 111.854 152.696C111.933 152.421 112.208 152.283 112.483 152.362L121.284 154.994C121.559 155.073 121.697 155.348 121.618 155.623C121.539 155.878 121.245 156.036 120.989 155.957Z" fill="#F9F9F9"/>
<path d="M122.816 158.496L109.26 154.449C108.985 154.371 108.848 154.096 108.926 153.821C109.005 153.546 109.28 153.408 109.555 153.487L123.111 157.534C123.386 157.612 123.523 157.887 123.445 158.162C123.366 158.438 123.071 158.595 122.816 158.496Z" fill="#F9F9F9"/>
<path d="M120.4 159.826L110.557 156.879C110.282 156.801 110.145 156.525 110.223 156.25C110.302 155.975 110.577 155.838 110.852 155.916L120.694 158.863C120.969 158.942 121.107 159.217 121.028 159.492C120.95 159.747 120.675 159.905 120.4 159.826Z" fill="#F9F9F9"/>
<path d="M135.388 21.6406H26.3145V170.478H135.388V21.6406Z" fill="#FCFCFC"/>
<path d="M108.002 34.8943H51.3632C50.8131 34.8943 50.3809 34.4621 50.3809 33.912C50.3809 33.3815 50.8131 32.9297 51.3632 32.9297H108.002C108.533 32.9297 108.985 33.3619 108.985 33.912C108.965 34.4621 108.533 34.8943 108.002 34.8943Z" fill="#BCBCBC"/>
<path d="M108.002 35.5622H51.3631C50.4594 35.5622 49.7129 34.8157 49.7129 33.912C49.7129 33.0083 50.4594 32.2617 51.3631 32.2617H108.002C108.906 32.2617 109.652 33.0083 109.652 33.912C109.652 34.8157 108.906 35.5622 108.002 35.5622ZM51.3631 33.5976C51.1863 33.5976 51.0488 33.7352 51.0488 33.912C51.0488 34.0888 51.1863 34.2263 51.3631 34.2263H108.002C108.179 34.2263 108.317 34.0888 108.317 33.912C108.317 33.7352 108.179 33.5976 108.002 33.5976H51.3631Z" fill="#BCBCBC"/>
<path d="M120.361 46.1934H38.9873C38.339 46.1934 37.8086 45.663 37.8086 45.0147C37.8086 44.3664 38.339 43.8359 38.9873 43.8359H120.361C121.009 43.8359 121.539 44.3664 121.539 45.0147C121.539 45.663 121.029 46.1934 120.361 46.1934Z" fill="#E0E0E0"/>
<path d="M120.361 57.295H38.9873C38.339 57.295 37.8086 56.7646 37.8086 56.1163C37.8086 55.4679 38.339 54.9375 38.9873 54.9375H120.361C121.009 54.9375 121.539 55.4679 121.539 56.1163C121.539 56.7646 121.029 57.295 120.361 57.295Z" fill="#E0E0E0"/>
<path d="M91.2256 68.3966H39.0069C38.3586 68.3966 37.8281 67.8661 37.8281 67.2178C37.8281 66.5695 38.3586 66.0391 39.0069 66.0391H91.2256C91.8739 66.0391 92.4044 66.5695 92.4044 67.2178C92.4044 67.8661 91.8739 68.3966 91.2256 68.3966Z" fill="#E0E0E0"/>
<path d="M120.361 79.4981H38.9873C38.339 79.4981 37.8086 78.9677 37.8086 78.3194C37.8086 77.6711 38.339 77.1406 38.9873 77.1406H120.361C121.009 77.1406 121.539 77.6711 121.539 78.3194C121.539 78.9677 121.029 79.4981 120.361 79.4981Z" fill="#E0E0E0"/>
<path d="M120.361 90.5997H38.9873C38.339 90.5997 37.8086 90.0693 37.8086 89.4209C37.8086 88.7726 38.339 88.2422 38.9873 88.2422H120.361C121.009 88.2422 121.539 88.7726 121.539 89.4209C121.539 90.0693 121.029 90.5997 120.361 90.5997Z" fill="#E0E0E0"/>
<path d="M120.361 101.678H38.9873C38.339 101.678 37.8086 101.147 37.8086 100.499C37.8086 99.8508 38.339 99.3203 38.9873 99.3203H120.361C121.009 99.3203 121.539 99.8508 121.539 100.499C121.539 101.147 121.029 101.678 120.361 101.678Z" fill="#E0E0E0"/>
<path d="M120.361 112.779H38.9873C38.339 112.779 37.8086 112.249 37.8086 111.601C37.8086 110.952 38.339 110.422 38.9873 110.422H120.361C121.009 110.422 121.539 110.952 121.539 111.601C121.539 112.249 121.029 112.779 120.361 112.779Z" fill="#E0E0E0"/>
<path d="M91.2256 123.881H39.0069C38.3586 123.881 37.8281 123.351 37.8281 122.702C37.8281 122.054 38.3586 121.523 39.0069 121.523H91.2256C91.8739 121.523 92.4044 122.054 92.4044 122.702C92.4044 123.351 91.8739 123.881 91.2256 123.881Z" fill="#E0E0E0"/>
<path d="M77.3166 151.245H39.0071C38.516 151.245 38.123 150.852 38.123 150.361C38.123 149.869 38.516 149.477 39.0071 149.477H77.3166C77.8077 149.477 78.2006 149.869 78.2006 150.361C78.2006 150.852 77.8077 151.245 77.3166 151.245Z" fill="#BCBCBC"/>
<path d="M109.929 156.736C103.937 156.736 99.0645 151.864 99.0645 145.872C99.0645 139.88 103.937 135.008 109.929 135.008C115.921 135.008 120.793 139.88 120.793 145.872C120.812 151.844 115.94 156.736 109.929 156.736ZM109.929 135.872C104.428 135.872 99.9485 140.351 99.9485 145.852C99.9485 151.353 104.428 155.832 109.929 155.832C115.429 155.832 119.909 151.353 119.909 145.852C119.928 140.351 115.449 135.872 109.929 135.872Z" fill="#ECF2FF"/>
<path d="M109.929 159.843C102.228 159.843 95.9414 153.576 95.9414 145.855C95.9414 138.154 102.208 131.867 109.929 131.867C117.65 131.867 123.917 138.134 123.917 145.855C123.917 153.576 117.65 159.843 109.929 159.843ZM109.929 132.771C102.719 132.771 96.8451 138.645 96.8451 145.855C96.8451 153.065 102.719 158.939 109.929 158.939C117.139 158.939 123.013 153.065 123.013 145.855C123.033 138.645 117.159 132.771 109.929 132.771Z" fill="#ECF2FF"/>
<path d="M103.662 156.347C103.623 156.347 103.583 156.328 103.544 156.308C99.8703 154.049 97.6699 150.139 97.6699 145.817C97.6699 141.927 99.5559 138.214 102.699 135.916C102.798 135.837 102.935 135.857 103.014 135.955C103.092 136.053 103.073 136.191 102.974 136.269C99.9488 138.489 98.1218 142.065 98.1218 145.817C98.1218 149.982 100.244 153.754 103.799 155.915C103.898 155.974 103.937 156.112 103.878 156.23C103.799 156.308 103.721 156.347 103.662 156.347Z" fill="#ECF2FF"/>
<path d="M112.385 157.892C112.287 157.892 112.189 157.813 112.169 157.715C112.149 157.597 112.228 157.479 112.346 157.46C117.807 156.34 121.776 151.448 121.776 145.868C121.776 145.751 121.874 145.652 121.992 145.652C122.11 145.652 122.208 145.751 122.208 145.868C122.208 151.664 118.102 156.733 112.424 157.892C112.424 157.872 112.405 157.892 112.385 157.892Z" fill="#ECF2FF"/>
<path d="M121.304 142.065C121.206 142.065 121.127 142.006 121.088 141.908C119.418 137.173 114.939 134.01 109.929 134.01C109.811 134.01 109.713 133.912 109.713 133.794C109.713 133.676 109.811 133.578 109.929 133.578C115.135 133.578 119.791 136.879 121.52 141.77C121.559 141.888 121.5 142.006 121.383 142.045C121.363 142.045 121.343 142.065 121.304 142.065Z" fill="#ECF2FF"/>
<path d="M116.943 144.06L104.861 141.31C104.586 141.251 104.409 140.976 104.488 140.701C104.546 140.426 104.821 140.249 105.097 140.327L117.179 143.078C117.454 143.137 117.631 143.412 117.552 143.687C117.473 143.942 117.218 144.119 116.943 144.06Z" fill="#ECF2FF"/>
<path d="M115.488 145.706L105.468 143.427C105.193 143.368 105.016 143.093 105.095 142.818C105.154 142.543 105.429 142.366 105.704 142.445L115.723 144.723C115.998 144.782 116.175 145.057 116.097 145.332C116.018 145.588 115.743 145.765 115.488 145.706Z" fill="#ECF2FF"/>
<path d="M114.526 147.489L105.568 145.466C105.293 145.407 105.116 145.132 105.195 144.857C105.253 144.582 105.529 144.405 105.804 144.484L114.762 146.507C115.037 146.566 115.214 146.841 115.135 147.116C115.057 147.372 114.782 147.548 114.526 147.489Z" fill="#ECF2FF"/>
<path d="M116.51 149.898L102.699 146.755C102.424 146.696 102.247 146.421 102.325 146.146C102.384 145.871 102.659 145.694 102.934 145.773L116.745 148.916C117.021 148.975 117.197 149.25 117.119 149.525C117.06 149.8 116.785 149.957 116.51 149.898Z" fill="#ECF2FF"/>
<path d="M114.191 151.354L104.171 149.075C103.896 149.016 103.719 148.741 103.798 148.466C103.857 148.191 104.132 148.014 104.407 148.093L114.426 150.372C114.702 150.431 114.878 150.706 114.8 150.981C114.741 151.256 114.466 151.433 114.191 151.354Z" fill="#ECF2FF"/>
<path d="M112.955 85.2919L91.0695 143.915C90.657 144.996 89.4586 145.546 88.3977 145.133L83.8006 143.424C82.72 143.031 82.17 141.813 82.5825 140.752L104.468 82.1289L112.955 85.2919Z" fill="#686868"/>
<path d="M117.355 73.5357L113.19 84.6749L104.684 81.4923L108.849 70.3531C109.124 69.6065 109.949 69.2333 110.695 69.5083L116.51 71.6693C117.257 71.964 117.63 72.7892 117.355 73.5357Z" fill="#686868"/>
<path d="M115.665 70.9122L111.854 69.4781L112.973 66.4919C113.366 65.431 114.545 64.9006 115.586 65.2935C116.647 65.6864 117.178 66.8652 116.785 67.9064L115.665 70.9122Z" fill="#686868"/>
<path d="M82.9936 143.84L81.0291 149.085C80.479 150.539 81.1076 152.13 82.4436 152.838L81.5792 155.156C81.5202 155.313 81.5988 155.47 81.7559 155.529L82.031 155.627C82.1882 155.686 82.3453 155.608 82.4043 155.451L83.2687 153.132C84.7421 153.447 86.2549 152.661 86.805 151.207L88.7695 145.962L82.9936 143.84Z" fill="#686868"/>
<path d="M104.683 81.4719L104.449 82.0977L112.953 85.2717L113.186 84.6459L104.683 81.4719Z" fill="#FCFCFC"/>
<path d="M117.807 76.2568L116.51 75.7656L116.019 77.0819L117.316 77.573L106.766 105.843C106.648 106.138 106.805 106.472 107.1 106.59L107.414 106.708C107.709 106.826 108.043 106.669 108.161 106.374L118.711 78.1035L119.025 77.2587C119.123 77.0033 118.986 76.7086 118.73 76.5908L117.807 76.2568Z" fill="#686868"/>
</svg>
