<svg width="63" height="72" viewBox="0 0 63 72" fill="none" xmlns="http://www.w3.org/2000/svg">
<path d="M59.3946 0C60.9781 0 62.2636 1.33663 62.2636 2.98825V27.4817C62.2636 28.4012 61.7613 29.244 60.9611 29.6356L58.6029 30.819V67.4443C58.6029 69.0619 57.2918 70.3815 55.6658 70.3815H3.60726C2.0238 70.3815 0.738281 69.0448 0.738281 67.3932V3.00528C0.738281 1.35365 2.0238 0.0170255 3.60726 0.0170255H57.6749V0H59.3946Z" fill="#E0E0E0"/>
<path d="M48.539 66.6341L3.66568 66.8129C3.08678 66.8129 2.61855 66.3447 2.62707 65.7658L3.70825 3.91487C3.71676 3.35298 4.18498 2.90176 4.74686 2.91027L49.3733 3.19973C49.9437 3.19973 50.412 3.66798 50.4034 4.23839L49.5691 65.621C49.5606 66.1829 49.1009 66.6341 48.539 66.6341Z" fill="#E0E0E0"/>
<path d="M50.6679 2.94531H3.40234V67.4439H50.6679V2.94531Z" fill="#FCFCFC"/>
<path d="M52.806 5.92541L5.61133 8.5L9.07515 72.0008L56.2698 69.4262L52.806 5.92541Z" fill="#F0F0F0"/>
<path d="M56.7461 4.28125H9.48047V68.7798H56.7461V4.28125Z" fill="#FCFCFC"/>
<path d="M44.8795 10.0271H20.3358C20.0974 10.0271 19.9102 9.83985 19.9102 9.60146C19.9102 9.3716 20.0974 9.17578 20.3358 9.17578H44.8795C45.1179 9.17578 45.3052 9.36308 45.3052 9.60146C45.2967 9.83133 45.1094 10.0271 44.8795 10.0271Z" fill="#BCBCBC"/>
<path d="M44.878 10.3248H20.3343C19.9427 10.3248 19.6191 10.0013 19.6191 9.60968C19.6191 9.21805 19.9427 8.89453 20.3343 8.89453H44.878C45.2696 8.89453 45.5931 9.21805 45.5931 9.60968C45.5846 10.0013 45.2696 10.3248 44.878 10.3248ZM20.3343 9.47346C20.2576 9.47346 20.198 9.53305 20.198 9.60968C20.198 9.6863 20.2576 9.7459 20.3343 9.7459H44.878C44.9546 9.7459 45.0142 9.6863 45.0142 9.60968C45.0142 9.53305 44.9546 9.47346 44.878 9.47346H20.3343Z" fill="#BCBCBC"/>
<path d="M50.2336 14.9357H14.9717C14.6908 14.9357 14.4609 14.7058 14.4609 14.4249C14.4609 14.1439 14.6908 13.9141 14.9717 13.9141H50.2336C50.5146 13.9141 50.7444 14.1439 50.7444 14.4249C50.7444 14.7058 50.5146 14.9357 50.2336 14.9357Z" fill="#E0E0E0"/>
<path d="M50.2336 19.7326H14.9717C14.6908 19.7326 14.4609 19.5027 14.4609 19.2218C14.4609 18.9408 14.6908 18.7109 14.9717 18.7109H50.2336C50.5146 18.7109 50.7444 18.9408 50.7444 19.2218C50.7444 19.5027 50.5146 19.7326 50.2336 19.7326Z" fill="#E0E0E0"/>
<path d="M37.6097 24.5607H14.9815C14.7006 24.5607 14.4707 24.3308 14.4707 24.0499C14.4707 23.7689 14.7006 23.5391 14.9815 23.5391H37.6097C37.8907 23.5391 38.1205 23.7689 38.1205 24.0499C38.1205 24.3308 37.8907 24.5607 37.6097 24.5607Z" fill="#E0E0E0"/>
<path d="M50.2336 29.3654H14.9717C14.6908 29.3654 14.4609 29.1355 14.4609 28.8546C14.4609 28.5736 14.6908 28.3438 14.9717 28.3438H50.2336C50.5146 28.3438 50.7444 28.5736 50.7444 28.8546C50.7444 29.1355 50.5146 29.3654 50.2336 29.3654Z" fill="#E0E0E0"/>
<path d="M50.2336 34.1701H14.9717C14.6908 34.1701 14.4609 33.9402 14.4609 33.6593C14.4609 33.3783 14.6908 33.1484 14.9717 33.1484H50.2336C50.5146 33.1484 50.7444 33.3783 50.7444 33.6593C50.7444 33.9402 50.5146 34.1701 50.2336 34.1701Z" fill="#E0E0E0"/>
<path d="M50.2336 38.9748H14.9717C14.6908 38.9748 14.4609 38.7449 14.4609 38.4639C14.4609 38.183 14.6908 37.9531 14.9717 37.9531H50.2336C50.5146 37.9531 50.7444 38.183 50.7444 38.4639C50.7444 38.7449 50.5146 38.9748 50.2336 38.9748Z" fill="#E0E0E0"/>
<path d="M50.2336 43.7951H14.9717C14.6908 43.7951 14.4609 43.5652 14.4609 43.2843C14.4609 43.0033 14.6908 42.7734 14.9717 42.7734H50.2336C50.5146 42.7734 50.7444 43.0033 50.7444 43.2843C50.7444 43.5652 50.5146 43.7951 50.2336 43.7951Z" fill="#E0E0E0"/>
<path d="M37.6097 48.5998H14.9815C14.7006 48.5998 14.4707 48.3699 14.4707 48.0889C14.4707 47.808 14.7006 47.5781 14.9815 47.5781H37.6097C37.8907 47.5781 38.1205 47.808 38.1205 48.0889C38.1205 48.3784 37.8907 48.5998 37.6097 48.5998Z" fill="#E0E0E0"/>
<path d="M31.5796 60.4537H14.9788C14.766 60.4537 14.5957 60.2835 14.5957 60.0706C14.5957 59.8578 14.766 59.6875 14.9788 59.6875H31.5796C31.7925 59.6875 31.9627 59.8578 31.9627 60.0706C31.9627 60.2749 31.7925 60.4537 31.5796 60.4537Z" fill="#BCBCBC"/>
<path d="M45.7117 62.8145C43.1152 62.8145 41.0039 60.7031 41.0039 58.1065C41.0039 55.5098 43.1152 53.3984 45.7117 53.3984C48.3083 53.3984 50.4196 55.5098 50.4196 58.1065C50.4281 60.7031 48.3083 62.8145 45.7117 62.8145ZM45.7117 53.773C43.328 53.773 41.387 55.7141 41.387 58.098C41.387 60.4818 43.328 62.4229 45.7117 62.4229C48.0955 62.4229 50.0365 60.4818 50.0365 58.098C50.045 55.7141 48.104 53.773 45.7117 53.773Z" fill="#ECF2FF"/>
<path d="M45.7118 64.1859C42.3746 64.1859 39.6504 61.4701 39.6504 58.1242C39.6504 54.7869 42.3661 52.0625 45.7118 52.0625C49.049 52.0625 51.7733 54.7783 51.7733 58.1242C51.7733 61.4701 49.0575 64.1859 45.7118 64.1859ZM45.7118 52.4541C42.5875 52.4541 40.042 54.9997 40.042 58.1242C40.042 61.2487 42.5875 63.7943 45.7118 63.7943C48.8362 63.7943 51.3817 61.2487 51.3817 58.1242C51.3902 54.9997 48.8447 52.4541 45.7118 52.4541Z" fill="#ECF2FF"/>
<path d="M42.9872 62.6877C42.9701 62.6877 42.9531 62.6792 42.9361 62.6707C41.3441 61.6916 40.3906 59.9974 40.3906 58.1244C40.3906 56.4387 41.2079 54.8296 42.57 53.8335C42.6126 53.7995 42.6722 53.808 42.7062 53.8505C42.7403 53.8931 42.7318 53.9527 42.6892 53.9868C41.3782 54.9488 40.5864 56.4983 40.5864 58.1244C40.5864 59.9293 41.5059 61.5639 43.0468 62.5004C43.0893 62.5259 43.1064 62.5855 43.0808 62.6366C43.0553 62.6707 43.0212 62.6877 42.9872 62.6877Z" fill="#ECF2FF"/>
<path d="M46.7766 63.3353C46.734 63.3353 46.6915 63.3012 46.6829 63.2586C46.6744 63.2075 46.7085 63.1565 46.7596 63.1479C49.1262 62.6627 50.8459 60.5428 50.8459 58.1249C50.8459 58.0738 50.8885 58.0312 50.9396 58.0312C50.9907 58.0312 51.0332 58.0738 51.0332 58.1249C51.0332 60.6364 49.2539 62.8329 46.7936 63.3353C46.7936 63.3353 46.7851 63.3353 46.7766 63.3353Z" fill="#ECF2FF"/>
<path d="M50.642 56.4709C50.5994 56.4709 50.5653 56.4453 50.5483 56.4028C49.8247 54.351 47.8837 52.9803 45.7128 52.9803C45.6617 52.9803 45.6191 52.9377 45.6191 52.8866C45.6191 52.8355 45.6617 52.793 45.7128 52.793C47.9688 52.793 49.9864 54.2233 50.7356 56.3432C50.7526 56.3942 50.7271 56.4453 50.676 56.4623C50.6675 56.4709 50.659 56.4709 50.642 56.4709Z" fill="#ECF2FF"/>
<path d="M48.7532 57.3523L43.5175 56.1604C43.3983 56.1348 43.3217 56.0156 43.3558 55.8964C43.3813 55.7773 43.5005 55.7006 43.6197 55.7347L48.8554 56.9266C48.9745 56.9521 49.0512 57.0713 49.0171 57.1905C48.983 57.3097 48.8724 57.3778 48.7532 57.3523Z" fill="#ECF2FF"/>
<path d="M48.123 58.0464L43.7812 57.0588C43.662 57.0333 43.5854 56.9141 43.6195 56.7949C43.645 56.6757 43.7642 56.5991 43.8834 56.6331L48.2251 57.6207C48.3443 57.6462 48.4209 57.7654 48.3869 57.8846C48.3528 57.9953 48.2336 58.0719 48.123 58.0464Z" fill="#ECF2FF"/>
<path d="M47.7062 58.8342L43.8242 57.9572C43.705 57.9317 43.6284 57.8125 43.6624 57.6933C43.688 57.5741 43.8071 57.4975 43.9263 57.5316L47.8084 58.4085C47.9276 58.434 48.0042 58.5532 47.9701 58.6724C47.9361 58.7831 47.8169 58.8597 47.7062 58.8342Z" fill="#ECF2FF"/>
<path d="M48.5648 59.8819L42.58 58.5197C42.4608 58.4942 42.3842 58.375 42.4183 58.2558C42.4438 58.1366 42.563 58.06 42.6822 58.0941L48.667 59.4562C48.7862 59.4818 48.8628 59.601 48.8288 59.7202C48.7947 59.8394 48.684 59.9075 48.5648 59.8819Z" fill="#ECF2FF"/>
<path d="M47.5624 60.5073L43.2207 59.5197C43.1015 59.4942 43.0249 59.375 43.0589 59.2558C43.0844 59.1366 43.2036 59.06 43.3228 59.0941L47.6646 60.0816C47.7838 60.1072 47.8604 60.2264 47.8263 60.3456C47.8008 60.4648 47.6816 60.5329 47.5624 60.5073Z" fill="#ECF2FF"/>
</svg>
