<svg width="42" height="42" viewBox="0 0 42 42" fill="none" xmlns="http://www.w3.org/2000/svg">
<path d="M6.2998 0.5H35.7002C38.9033 0.500105 41.4999 3.09671 41.5 6.2998V35.7002C41.4999 38.9033 38.9033 41.4999 35.7002 41.5H6.2998C3.09671 41.4999 0.500105 38.9033 0.5 35.7002V6.2998L0.507812 6.00195C0.657954 3.03594 3.03594 0.657954 6.00195 0.507812L6.2998 0.5Z" stroke="black"/>
<path d="M33.8784 24.7734C33.1401 23.9531 31.4994 23.543 29.2846 23.543C27.9721 23.543 26.5776 23.707 24.9369 23.9531C23.1998 22.326 21.7567 20.4112 20.6713 18.293C21.4916 15.832 22.0659 13.4531 22.0659 11.6484C22.0659 10.2539 21.5737 8.03906 19.6049 8.03906C19.0307 8.03906 18.5385 8.36719 18.2104 8.85938C17.3901 10.3359 17.7182 13.6172 19.2768 17.0625C18.1383 20.3547 16.7676 23.5619 15.1752 26.6602C10.8276 28.4648 7.95648 30.4336 7.71039 31.9922C7.54632 32.7305 8.03851 33.9609 9.76117 33.9609C12.3041 33.9609 15.0932 30.2695 17.226 26.4961C19.6881 25.6495 22.211 24.9913 24.7729 24.5273C27.8901 27.2344 30.5971 27.6445 31.9096 27.6445C34.5346 27.6445 34.7807 25.7578 33.8784 24.7734ZM18.6205 9.10547C19.2768 8.12109 20.7534 8.44922 20.7534 10.418C20.7534 11.7305 20.3432 13.8633 19.5229 16.3242C18.0463 12.8789 18.0463 10.1719 18.6205 9.10547ZM8.20257 32.0742C8.44867 30.7617 10.9096 28.957 14.7651 27.3984C12.6323 31.0078 10.4994 33.3047 9.18695 33.3047C8.36664 33.3047 8.12054 32.5664 8.20257 32.0742ZM24.3627 24.0352C22.0513 24.4659 19.7754 25.0691 17.5541 25.8398C18.7683 23.6484 19.7577 21.3398 20.5073 18.9492C21.5854 20.7919 22.8798 22.4993 24.3627 24.0352ZM25.4291 24.3633C28.0541 23.9531 30.269 24.0352 31.2534 24.1992C33.6323 24.6914 32.8119 27.5625 30.1869 26.9062C28.3002 26.4961 26.7416 25.4297 25.4291 24.3633Z" fill="black"/>
</svg>
