<svg width="20" height="20" viewBox="0 0 20 20" fill="none" xmlns="http://www.w3.org/2000/svg">
<path d="M9.99967 0.833496C10.542 0.833496 11.0734 0.880599 11.5899 0.970938M9.99967 0.833496C4.93706 0.833496 0.833008 4.93755 0.833008 10.0002C0.833008 15.0628 4.93706 19.1668 9.99967 19.1668M9.99967 0.833496V19.1668M15.2595 2.49175C16.1342 3.10563 16.8967 3.86848 17.5103 4.74345M19.029 8.41032C19.1193 8.9267 19.1663 9.45793 19.1663 10.0002C19.1663 10.5424 19.1193 11.0736 19.029 11.59M17.5064 15.2624C16.8933 16.1354 16.1318 16.8965 15.2585 17.5093M11.5881 19.0297C11.0722 19.1198 10.5414 19.1668 9.99967 19.1668" stroke="#F14E1C" stroke-linecap="round" stroke-linejoin="round"/>
</svg>
