<svg width="29" height="30" viewBox="0 0 29 30" fill="none" xmlns="http://www.w3.org/2000/svg">
<rect x="0.5" y="1" width="28" height="28" rx="14" fill="#F0F0F0"/>
<rect x="0.5" y="1" width="28" height="28" rx="14" stroke="#F0F0F0"/>
<path d="M17.1279 18.375H17.5067C17.8709 18.375 18.053 18.375 18.1534 18.2991C18.2409 18.2329 18.295 18.1318 18.3015 18.0224C18.309 17.8967 18.208 17.7452 18.006 17.4422L16.8771 15.7488C16.7102 15.4985 16.6267 15.3733 16.5215 15.3296C16.4295 15.2915 16.3262 15.2915 16.2342 15.3296C16.129 15.3733 16.0456 15.4985 15.8786 15.7488L15.5996 16.1675M17.1279 18.375L14.2462 14.2126C14.0804 13.9732 13.9976 13.8535 13.8941 13.8114C13.8035 13.7746 13.7022 13.7746 13.6116 13.8114C13.5081 13.8535 13.4253 13.9732 13.2595 14.2126L11.0297 17.4335C10.8186 17.7384 10.713 17.8909 10.719 18.0178C10.7242 18.1282 10.7779 18.2307 10.8658 18.2979C10.9666 18.375 11.1521 18.375 11.523 18.375H17.1279ZM17.8779 12.75C17.8779 13.3713 17.3742 13.875 16.7529 13.875C16.1315 13.875 15.6279 13.3713 15.6279 12.75C15.6279 12.1287 16.1315 11.625 16.7529 11.625C17.3742 11.625 17.8779 12.1287 17.8779 12.75Z" stroke="black" stroke-width="0.5" stroke-linecap="round" stroke-linejoin="round"/>
</svg>
