<svg width="18" height="18" viewBox="0 0 18 18" fill="none" xmlns="http://www.w3.org/2000/svg">
<path d="M15.75 15.75H3.45C3.02996 15.75 2.81994 15.75 2.65951 15.6683C2.51839 15.5964 2.40365 15.4816 2.33175 15.3405C2.25 15.1801 2.25 14.97 2.25 14.55V2.25M15.75 5.25L11.6743 9.32574C11.5258 9.47424 11.4515 9.5485 11.3659 9.57632C11.2906 9.60079 11.2094 9.60079 11.1341 9.57632C11.0485 9.5485 10.9742 9.47424 10.8257 9.32574L9.42426 7.92426C9.27576 7.77576 9.2015 7.7015 9.11588 7.67368C9.04057 7.64921 8.95943 7.64921 8.88412 7.67368C8.7985 7.7015 8.72424 7.77576 8.57574 7.92426L5.25 11.25M15.75 5.25H12.75M15.75 5.25V8.25" stroke="black" stroke-linecap="round" stroke-linejoin="round"/>
</svg>
