<svg width="18" height="19" viewBox="0 0 18 19" fill="none" xmlns="http://www.w3.org/2000/svg">
<path d="M5.625 8.75H3.45C3.02996 8.75 2.81994 8.75 2.65951 8.83175C2.51839 8.90365 2.40365 9.01839 2.33175 9.15951C2.25 9.31994 2.25 9.52996 2.25 9.95V16.25M12.375 8.75H14.55C14.97 8.75 15.1801 8.75 15.3405 8.83175C15.4816 8.90365 15.5963 9.01839 15.6683 9.15951C15.75 9.31994 15.75 9.52996 15.75 9.95V16.25M12.375 16.25V5.15C12.375 4.30992 12.375 3.88988 12.2115 3.56901C12.0677 3.28677 11.8382 3.0573 11.556 2.91349C11.2351 2.75 10.8151 2.75 9.975 2.75H8.025C7.18492 2.75 6.76488 2.75 6.44401 2.91349C6.16177 3.0573 5.9323 3.28677 5.78849 3.56901C5.625 3.88988 5.625 4.30992 5.625 5.15V16.25M16.5 16.25H1.5M8.25 5.75H9.75M8.25 8.75H9.75M8.25 11.75H9.75" stroke="black" stroke-linecap="round" stroke-linejoin="round"/>
</svg>
