<svg width="16" height="16" viewBox="0 0 16 16" fill="none" xmlns="http://www.w3.org/2000/svg">
<path d="M5.0026 7.33333H3.06927C2.6959 7.33333 2.50922 7.33333 2.36661 7.406C2.24117 7.46991 2.13918 7.5719 2.07527 7.69734C2.0026 7.83995 2.0026 8.02663 2.0026 8.4V14M11.0026 7.33333H12.9359C13.3093 7.33333 13.496 7.33333 13.6386 7.406C13.764 7.46991 13.866 7.5719 13.9299 7.69734C14.0026 7.83995 14.0026 8.02663 14.0026 8.4V14M11.0026 14V4.13333C11.0026 3.3866 11.0026 3.01323 10.8573 2.72801C10.7294 2.47713 10.5255 2.27316 10.2746 2.14532C9.98938 2 9.61601 2 8.86927 2H7.13594C6.3892 2 6.01583 2 5.73062 2.14532C5.47973 2.27316 5.27576 2.47713 5.14793 2.72801C5.0026 3.01323 5.0026 3.3866 5.0026 4.13333V14M14.6693 14H1.33594M7.33594 4.66667H8.66927M7.33594 7.33333H8.66927M7.33594 10H8.66927" stroke="#3A50E4" stroke-linecap="round" stroke-linejoin="round"/>
</svg>
