<svg width="16" height="16" viewBox="0 0 16 16" fill="none" xmlns="http://www.w3.org/2000/svg">
<path d="M7.33594 10H5.33594C4.09343 10 3.47217 10 2.98211 10.203C2.32871 10.4736 1.80958 10.9928 1.53893 11.6462C1.33594 12.1362 1.33594 12.7575 1.33594 14M10.3359 2.19384C11.3132 2.58943 12.0026 3.54754 12.0026 4.66667M8.00252 14.3333L9.35258 14.0633C9.47029 14.0398 9.52915 14.028 9.58403 14.0065C9.63274 13.9874 9.67904 13.9626 9.72196 13.9327C9.77032 13.899 9.81276 13.8565 9.89764 13.7716L14.336 9.33337C14.7042 8.96516 14.7042 8.36818 14.336 7.99998C13.9678 7.6318 13.3708 7.6318 13.0026 8L8.56428 12.4383C8.47941 12.5232 8.43697 12.5656 8.40325 12.614C8.37332 12.6569 8.34854 12.7032 8.32944 12.7519C8.30791 12.8068 8.29614 12.8656 8.27259 12.9833L8.00252 14.3333ZM9.0026 4.66667C9.0026 6.13943 7.8087 7.33333 6.33594 7.33333C4.86318 7.33333 3.66927 6.13943 3.66927 4.66667C3.66927 3.19391 4.86318 2 6.33594 2C7.8087 2 9.0026 3.19391 9.0026 4.66667Z" stroke="#3A50E4" stroke-linecap="round" stroke-linejoin="round"/>
</svg>
