<svg width="18" height="18" viewBox="0 0 18 18" fill="none" xmlns="http://www.w3.org/2000/svg">
<path d="M7.04384 14.5283L7.48217 15.5142C7.61248 15.8076 7.82513 16.057 8.09434 16.232C8.36355 16.4069 8.67776 16.5001 8.99884 16.5C9.31992 16.5001 9.63413 16.4069 9.90334 16.232C10.1725 16.057 10.3852 15.8076 10.5155 15.5142L10.9538 14.5283C11.1099 14.1785 11.3723 13.8869 11.7038 13.695C12.0374 13.5026 12.4233 13.4206 12.8063 13.4608L13.8788 13.575C14.1981 13.6088 14.5203 13.5492 14.8064 13.4035C15.0924 13.2578 15.3301 13.0322 15.4905 12.7542C15.6511 12.4763 15.7277 12.1577 15.7108 11.8372C15.6939 11.5166 15.5844 11.2079 15.3955 10.9483L14.7605 10.0758C14.5344 9.76285 14.4136 9.38611 14.4155 9C14.4154 8.61494 14.5374 8.23976 14.7638 7.92833L15.3988 7.05583C15.5877 6.79632 15.6973 6.48755 15.7141 6.16701C15.731 5.84646 15.6545 5.52791 15.4938 5.25C15.3334 4.97193 15.0958 4.74637 14.8097 4.60067C14.5236 4.45497 14.2014 4.3954 13.8822 4.42917L12.8097 4.54333C12.4267 4.58356 12.0408 4.50159 11.7072 4.30917C11.375 4.11619 11.1125 3.82302 10.9572 3.47167L10.5155 2.48583C10.3852 2.19238 10.1725 1.94304 9.90334 1.76805C9.63413 1.59306 9.31992 1.49995 8.99884 1.5C8.67776 1.49995 8.36355 1.59306 8.09434 1.76805C7.82513 1.94304 7.61248 2.19238 7.48217 2.48583L7.04384 3.47167C6.88854 3.82302 6.62599 4.11619 6.29384 4.30917C5.96025 4.50159 5.57434 4.58356 5.19134 4.54333L4.11551 4.42917C3.79625 4.3954 3.47406 4.45497 3.18799 4.60067C2.90192 4.74637 2.66427 4.97193 2.50384 5.25C2.34321 5.52791 2.26668 5.84646 2.28354 6.16701C2.3004 6.48755 2.40993 6.79632 2.59884 7.05583L3.23384 7.92833C3.4603 8.23976 3.58224 8.61494 3.58217 9C3.58224 9.38506 3.4603 9.76024 3.23384 10.0717L2.59884 10.9442C2.40993 11.2037 2.3004 11.5124 2.28354 11.833C2.26668 12.1535 2.34321 12.4721 2.50384 12.75C2.66443 13.0279 2.90211 13.2534 3.18814 13.399C3.47417 13.5447 3.79628 13.6044 4.11551 13.5708L5.18801 13.4567C5.57101 13.4164 5.95692 13.4984 6.29051 13.6908C6.6239 13.8833 6.88766 14.1765 7.04384 14.5283Z" stroke="#3A50E4" stroke-linecap="round" stroke-linejoin="round"/>
<path d="M8.9975 11.25C10.2401 11.25 11.2475 10.2426 11.2475 9C11.2475 7.75736 10.2401 6.75 8.9975 6.75C7.75486 6.75 6.7475 7.75736 6.7475 9C6.7475 10.2426 7.75486 11.25 8.9975 11.25Z" stroke="#3A50E4" stroke-linecap="round" stroke-linejoin="round"/>
</svg>
