<svg width="16" height="16" viewBox="0 0 16 16" fill="none" xmlns="http://www.w3.org/2000/svg">
<path d="M6.04384 13.5283L6.48217 14.5142C6.61248 14.8076 6.82513 15.057 7.09434 15.232C7.36355 15.4069 7.67776 15.5001 7.99884 15.5C8.31992 15.5001 8.63413 15.4069 8.90334 15.232C9.17255 15.057 9.3852 14.8076 9.51551 14.5142L9.95384 13.5283C10.1099 13.1785 10.3723 12.8869 10.7038 12.695C11.0374 12.5026 11.4233 12.4206 11.8063 12.4608L12.8788 12.575C13.1981 12.6088 13.5203 12.5492 13.8064 12.4035C14.0924 12.2578 14.3301 12.0322 14.4905 11.7542C14.6511 11.4763 14.7277 11.1577 14.7108 10.8372C14.6939 10.5166 14.5844 10.2079 14.3955 9.94833L13.7605 9.07583C13.5344 8.76285 13.4136 8.38611 13.4155 8C13.4154 7.61494 13.5374 7.23976 13.7638 6.92833L14.3988 6.05583C14.5877 5.79632 14.6973 5.48755 14.7141 5.16701C14.731 4.84646 14.6545 4.52791 14.4938 4.25C14.3334 3.97193 14.0958 3.74637 13.8097 3.60067C13.5236 3.45497 13.2014 3.3954 12.8822 3.42917L11.8097 3.54333C11.4267 3.58356 11.0408 3.50159 10.7072 3.30917C10.375 3.11619 10.1125 2.82302 9.95717 2.47167L9.51551 1.48583C9.3852 1.19238 9.17255 0.943036 8.90334 0.768049C8.63413 0.593062 8.31992 0.499948 7.99884 0.5C7.67776 0.499948 7.36355 0.593062 7.09434 0.768049C6.82513 0.943036 6.61248 1.19238 6.48217 1.48583L6.04384 2.47167C5.88854 2.82302 5.62599 3.11619 5.29384 3.30917C4.96025 3.50159 4.57434 3.58356 4.19134 3.54333L3.11551 3.42917C2.79625 3.3954 2.47406 3.45497 2.18799 3.60067C1.90192 3.74637 1.66427 3.97193 1.50384 4.25C1.34321 4.52791 1.26668 4.84646 1.28354 5.16701C1.3004 5.48755 1.40993 5.79632 1.59884 6.05583L2.23384 6.92833C2.4603 7.23976 2.58224 7.61494 2.58217 8C2.58224 8.38506 2.4603 8.76024 2.23384 9.07167L1.59884 9.94417C1.40993 10.2037 1.3004 10.5124 1.28354 10.833C1.26668 11.1535 1.34321 11.4721 1.50384 11.75C1.66443 12.0279 1.90211 12.2534 2.18814 12.399C2.47417 12.5447 2.79628 12.6044 3.11551 12.5708L4.18801 12.4567C4.57101 12.4164 4.95692 12.4984 5.29051 12.6908C5.6239 12.8833 5.88766 13.1765 6.04384 13.5283Z" stroke="black" stroke-linecap="round" stroke-linejoin="round"/>
<path d="M7.9975 10.25C9.24014 10.25 10.2475 9.24264 10.2475 8C10.2475 6.75736 9.24014 5.75 7.9975 5.75C6.75486 5.75 5.7475 6.75736 5.7475 8C5.7475 9.24264 6.75486 10.25 7.9975 10.25Z" stroke="black" stroke-linecap="round" stroke-linejoin="round"/>
</svg>
