<svg width="16" height="16" viewBox="0 0 16 16" fill="none" xmlns="http://www.w3.org/2000/svg">
<path d="M7.52437 2.30205C7.67803 1.99076 7.75486 1.83511 7.85916 1.78538C7.9499 1.74211 8.05533 1.74211 8.14607 1.78538C8.25037 1.83511 8.3272 1.99076 8.48086 2.30205L9.93864 5.25536C9.98401 5.34726 10.0067 5.39321 10.0398 5.42889C10.0692 5.46048 10.1044 5.48607 10.1435 5.50425C10.1876 5.52479 10.2383 5.5322 10.3398 5.54702L13.6006 6.02364C13.944 6.07383 14.1157 6.09893 14.1951 6.1828C14.2643 6.25577 14.2968 6.35603 14.2836 6.45569C14.2685 6.57022 14.1442 6.69129 13.8956 6.93342L11.5369 9.23078C11.4634 9.3024 11.4266 9.33821 11.4029 9.38081C11.3819 9.41854 11.3684 9.45998 11.3632 9.50284C11.3573 9.55125 11.366 9.60183 11.3834 9.703L11.9399 12.9479C11.9986 13.2902 12.028 13.4613 11.9728 13.5628C11.9248 13.6512 11.8395 13.7132 11.7406 13.7315C11.627 13.7525 11.4734 13.6717 11.166 13.5101L8.25086 11.9771C8.16003 11.9293 8.11461 11.9054 8.06677 11.896C8.0244 11.8877 7.98083 11.8877 7.93847 11.896C7.89062 11.9054 7.8452 11.9293 7.75438 11.9771L4.83922 13.5101C4.53188 13.6717 4.37821 13.7525 4.26459 13.7315C4.16573 13.7132 4.08042 13.6512 4.03243 13.5628C3.97727 13.4613 4.00662 13.2902 4.06532 12.9479L4.62186 9.703C4.63921 9.60183 4.64789 9.55125 4.64202 9.50284C4.63682 9.45998 4.62335 9.41854 4.60234 9.38081C4.57862 9.33821 4.54186 9.3024 4.46833 9.23078L2.10964 6.93342C1.86105 6.69129 1.73675 6.57022 1.72162 6.45569C1.70846 6.35603 1.74097 6.25577 1.8101 6.1828C1.88956 6.09893 2.06125 6.07383 2.40463 6.02364L5.66548 5.54702C5.76689 5.5322 5.81759 5.52479 5.86175 5.50425C5.90085 5.48607 5.93605 5.46048 5.96539 5.42889C5.99854 5.39321 6.02122 5.34726 6.06659 5.25536L7.52437 2.30205Z" stroke="#686868" stroke-linecap="round" stroke-linejoin="round"/>
</svg>
