<svg width="16" height="16" viewBox="0 0 16 16" fill="none" xmlns="http://www.w3.org/2000/svg">
<path d="M14.75 14.75H2.45C2.02996 14.75 1.81994 14.75 1.65951 14.6683C1.51839 14.5964 1.40365 14.4816 1.33175 14.3405C1.25 14.1801 1.25 13.97 1.25 13.55V1.25M14.75 4.25L10.6743 8.32574C10.5258 8.47424 10.4515 8.5485 10.3659 8.57632C10.2906 8.60079 10.2094 8.60079 10.1341 8.57632C10.0485 8.5485 9.97424 8.47424 9.82574 8.32574L8.42426 6.92426C8.27576 6.77576 8.2015 6.7015 8.11588 6.67368C8.04057 6.64921 7.95943 6.64921 7.88412 6.67368C7.7985 6.7015 7.72424 6.77576 7.57574 6.92426L4.25 10.25M14.75 4.25H11.75M14.75 4.25V7.25" stroke="black" stroke-linecap="round" stroke-linejoin="round"/>
</svg>
