<svg width="16" height="16" viewBox="0 0 16 16" fill="none" xmlns="http://www.w3.org/2000/svg">
<path d="M11 4.25C11 3.55252 11 3.20378 10.9233 2.91766C10.7153 2.1412 10.1088 1.53472 9.33234 1.32667C9.04622 1.25 8.69748 1.25 8 1.25C7.30252 1.25 6.95378 1.25 6.66766 1.32667C5.8912 1.53472 5.28472 2.1412 5.07667 2.91766C5 3.20378 5 3.55252 5 4.25M2.9 14.75H13.1C13.9401 14.75 14.3601 14.75 14.681 14.5865C14.9632 14.4427 15.1927 14.2132 15.3365 13.931C15.5 13.6101 15.5 13.1901 15.5 12.35V6.65C15.5 5.80992 15.5 5.38988 15.3365 5.06901C15.1927 4.78677 14.9632 4.5573 14.681 4.41349C14.3601 4.25 13.9401 4.25 13.1 4.25H2.9C2.05992 4.25 1.63988 4.25 1.31901 4.41349C1.03677 4.5573 0.8073 4.78677 0.66349 5.06901C0.5 5.38988 0.5 5.80992 0.5 6.65V12.35C0.5 13.1901 0.5 13.6101 0.66349 13.931C0.8073 14.2132 1.03677 14.4427 1.31901 14.5865C1.63988 14.75 2.05992 14.75 2.9 14.75Z" stroke="#3A50E4" stroke-linecap="round" stroke-linejoin="round"/>
</svg>
