<svg width="14" height="15" viewBox="0 0 14 15" fill="none" xmlns="http://www.w3.org/2000/svg">
<g clip-path="url(#clip0_4726_65324)">
<path d="M9.33266 5.34473V3.59473L11.0827 1.84473L11.666 3.01139L12.8327 3.59473L11.0827 5.34473H9.33266ZM9.33266 5.34473L6.99933 7.67803M12.8327 7.67806C12.8327 10.8997 10.221 13.5114 6.99935 13.5114C3.77769 13.5114 1.16602 10.8997 1.16602 7.67806C1.16602 4.4564 3.77769 1.84473 6.99935 1.84473M9.91602 7.67806C9.91602 9.28889 8.61018 10.5947 6.99935 10.5947C5.38852 10.5947 4.08268 9.28889 4.08268 7.67806C4.08268 6.06723 5.38852 4.76139 6.99935 4.76139" stroke="#686868" stroke-linecap="round" stroke-linejoin="round"/>
</g>
<defs>
<clipPath id="clip0_4726_65324">
<rect width="14" height="14" fill="white" transform="translate(0 0.678223)"/>
</clipPath>
</defs>
</svg>
