<svg width="12" height="16" viewBox="0 0 12 16" fill="none" xmlns="http://www.w3.org/2000/svg">
<path d="M4.00065 12.332H8.00065M2.40065 1.33203H9.60065C9.97402 1.33203 10.1607 1.33203 10.3033 1.40469C10.4288 1.46861 10.5307 1.5706 10.5947 1.69604C10.6673 1.83865 10.6673 2.02533 10.6673 2.3987V3.78171C10.6673 4.10783 10.6673 4.27089 10.6305 4.42434C10.5978 4.56039 10.5439 4.69045 10.4708 4.80974C10.3884 4.9443 10.2731 5.0596 10.0425 5.2902L8.08823 7.24445C7.82422 7.50846 7.69222 7.64047 7.64276 7.79269C7.59925 7.92658 7.59925 8.07081 7.64276 8.20471C7.69222 8.35693 7.82422 8.48893 8.08823 8.75294L10.0425 10.7072C10.2731 10.9378 10.3884 11.0531 10.4708 11.1877C10.5439 11.3069 10.5978 11.437 10.6305 11.5731C10.6673 11.7265 10.6673 11.8896 10.6673 12.2157V13.5987C10.6673 13.9721 10.6673 14.1588 10.5947 14.3014C10.5307 14.4268 10.4288 14.5288 10.3033 14.5927C10.1607 14.6654 9.97402 14.6654 9.60065 14.6654H2.40065C2.02728 14.6654 1.8406 14.6654 1.69799 14.5927C1.57255 14.5288 1.47056 14.4268 1.40665 14.3014C1.33398 14.1588 1.33398 13.9721 1.33398 13.5987V12.2157C1.33398 11.8896 1.33398 11.7265 1.37082 11.5731C1.40349 11.437 1.45736 11.3069 1.53046 11.1877C1.61292 11.0531 1.72822 10.9378 1.95882 10.7072L3.91307 8.75294C4.17708 8.48893 4.30909 8.35693 4.35855 8.20471C4.40205 8.07081 4.40205 7.92658 4.35855 7.79269C4.30909 7.64047 4.17708 7.50846 3.91307 7.24445L1.95882 5.2902C1.72822 5.0596 1.61292 4.9443 1.53046 4.80974C1.45736 4.69045 1.40349 4.56039 1.37082 4.42434C1.33398 4.27089 1.33398 4.10783 1.33398 3.78171V2.3987C1.33398 2.02533 1.33398 1.83865 1.40665 1.69604C1.47056 1.5706 1.57255 1.46861 1.69799 1.40469C1.8406 1.33203 2.02728 1.33203 2.40065 1.33203Z" stroke="black" stroke-linecap="round" stroke-linejoin="round"/>
</svg>
