<svg width="18" height="19" viewBox="0 0 18 19" fill="none" xmlns="http://www.w3.org/2000/svg">
<path d="M12 5V4.4C12 3.55992 12 3.13988 11.8365 2.81901C11.6927 2.53677 11.4632 2.3073 11.181 2.16349C10.8601 2 10.4401 2 9.6 2H8.4C7.55992 2 7.13988 2 6.81901 2.16349C6.53677 2.3073 6.3073 2.53677 6.16349 2.81901C6 3.13988 6 3.55992 6 4.4V5M7.5 9.125V12.875M10.5 9.125V12.875M2.25 5H15.75M14.25 5V13.4C14.25 14.6601 14.25 15.2902 14.0048 15.7715C13.789 16.1948 13.4448 16.539 13.0215 16.7548C12.5402 17 11.9101 17 10.65 17H7.35C6.08988 17 5.45982 17 4.97852 16.7548C4.55516 16.539 4.21095 16.1948 3.99524 15.7715C3.75 15.2902 3.75 14.6601 3.75 13.4V5" stroke="#686868" stroke-linecap="round" stroke-linejoin="round"/>
</svg>
