<svg width="32" height="32" viewBox="0 0 32 32" fill="none" xmlns="http://www.w3.org/2000/svg">
<path d="M0 4C0 1.79086 1.79086 0 4 0H28C30.2091 0 32 1.79086 32 4V28C32 30.2091 30.2091 32 28 32H4C1.79086 32 0 30.2091 0 28V4Z" fill="#ECF2FF"/>
<path d="M22 18V18.8C22 19.9201 22 20.4802 21.782 20.908C21.5903 21.2843 21.2843 21.5903 20.908 21.782C20.4802 22 19.9201 22 18.8 22H13.2C12.0799 22 11.5198 22 11.092 21.782C10.7157 21.5903 10.4097 21.2843 10.218 20.908C10 20.4802 10 19.9201 10 18.8V18M19.3333 13.3333L16 10M16 10L12.6667 13.3333M16 10V18" stroke="#3A50E4" stroke-linecap="round" stroke-linejoin="round"/>
</svg>
