<svg width="16" height="16" viewBox="0 0 16 16" fill="none" xmlns="http://www.w3.org/2000/svg">
<path d="M2.00002 15.3631C2.45195 15.5 3.06237 15.5 4.1 15.5H11.9C12.9376 15.5 13.548 15.5 14 15.3631M2.00002 15.3631C1.90312 15.3337 1.8135 15.2981 1.72852 15.2548C1.30516 15.039 0.96095 14.6948 0.745235 14.2715C0.5 13.7902 0.5 13.1601 0.5 11.9V4.1C0.5 2.83988 0.5 2.20982 0.745235 1.72852C0.96095 1.30516 1.30516 0.96095 1.72852 0.745235C2.20982 0.5 2.83988 0.5 4.1 0.5H11.9C13.1601 0.5 13.7902 0.5 14.2715 0.745235C14.6948 0.96095 15.039 1.30516 15.2548 1.72852C15.5 2.20982 15.5 2.83988 15.5 4.1V11.9C15.5 13.1601 15.5 13.7902 15.2548 14.2715C15.039 14.6948 14.6948 15.039 14.2715 15.2548C14.1865 15.2981 14.0969 15.3337 14 15.3631M2.00002 15.3631C2.00026 14.7561 2.0039 14.4349 2.05764 14.1647C2.29436 12.9747 3.22466 12.0444 4.41473 11.8076C4.70453 11.75 5.05302 11.75 5.75 11.75H10.25C10.947 11.75 11.2955 11.75 11.5853 11.8076C12.7753 12.0444 13.7056 12.9747 13.9424 14.1647C13.9961 14.4349 13.9997 14.7561 14 15.3631M11 6.125C11 7.78185 9.65685 9.125 8 9.125C6.34315 9.125 5 7.78185 5 6.125C5 4.46815 6.34315 3.125 8 3.125C9.65685 3.125 11 4.46815 11 6.125Z" stroke="black" stroke-linecap="round" stroke-linejoin="round"/>
</svg>
