<svg width="12" height="14" viewBox="0 0 12 14" fill="none" xmlns="http://www.w3.org/2000/svg">
<path d="M11.3327 13C11.3327 12.0696 11.3327 11.6044 11.2179 11.2259C10.9593 10.3736 10.2924 9.70669 9.44011 9.44816C9.06158 9.33333 8.59639 9.33333 7.66601 9.33333H4.33268C3.40231 9.33333 2.93712 9.33333 2.55859 9.44816C1.70632 9.70669 1.03938 10.3736 0.780842 11.2259C0.666016 11.6044 0.666016 12.0696 0.666016 13M8.99935 4C8.99935 5.65685 7.6562 7 5.99935 7C4.34249 7 2.99935 5.65685 2.99935 4C2.99935 2.34315 4.34249 1 5.99935 1C7.6562 1 8.99935 2.34315 8.99935 4Z" stroke="black" stroke-linecap="round" stroke-linejoin="round"/>
</svg>
