<svg width="18" height="19" viewBox="0 0 18 19" fill="none" xmlns="http://www.w3.org/2000/svg">
<path d="M16.5 16.25V14.75C16.5 13.3521 15.5439 12.1775 14.25 11.8445M11.625 2.96807C12.7244 3.41311 13.5 4.49098 13.5 5.75C13.5 7.00902 12.7244 8.08689 11.625 8.53193M12.75 16.25C12.75 14.8522 12.75 14.1533 12.5216 13.6019C12.2172 12.8669 11.6331 12.2828 10.8981 11.9784C10.3467 11.75 9.64783 11.75 8.25 11.75H6C4.60218 11.75 3.90326 11.75 3.35195 11.9784C2.61687 12.2828 2.03284 12.8669 1.72836 13.6019C1.5 14.1533 1.5 14.8522 1.5 16.25M10.125 5.75C10.125 7.40685 8.78185 8.75 7.125 8.75C5.46815 8.75 4.125 7.40685 4.125 5.75C4.125 4.09315 5.46815 2.75 7.125 2.75C8.78185 2.75 10.125 4.09315 10.125 5.75Z" stroke="black" stroke-linecap="round" stroke-linejoin="round"/>
</svg>
