<svg width="16" height="16" viewBox="0 0 16 16" fill="none" xmlns="http://www.w3.org/2000/svg">
<path d="M16 8C16 12.4183 12.4183 16 8 16C6.31478 16 4.75126 15.4789 3.46177 14.5891L0.727273 15.2727L1.44384 12.5856C0.533949 11.2871 0 9.70591 0 8C0 3.58172 3.58172 0 8 0C12.4183 0 16 3.58172 16 8Z" fill="url(#paint0_linear_3754_2910)"/>
<path d="M5.6618 3.66676C5.43989 3.22105 5.09947 3.26051 4.75557 3.26051C4.14096 3.26051 3.18262 3.99669 3.18262 5.36681C3.18262 6.48969 3.67742 7.71886 5.34473 9.55758C6.95381 11.3321 9.06804 12.25 10.8232 12.2188C12.5785 12.1875 12.9396 10.6771 12.9396 10.1671C12.9396 9.94097 12.7993 9.82817 12.7026 9.79752C12.1045 9.51047 11.0013 8.9756 10.7503 8.87511C10.4993 8.77462 10.3683 8.91054 10.2868 8.98448C10.0592 9.2014 9.60795 9.84069 9.45346 9.98448C9.29896 10.1283 9.06864 10.0555 8.97278 10.0011C8.62007 9.85961 7.66373 9.43422 6.90143 8.69526C5.95867 7.78136 5.90334 7.46693 5.72572 7.18705C5.58362 6.96314 5.68789 6.82576 5.73992 6.76572C5.94305 6.53135 6.22352 6.1695 6.3493 5.98968C6.47508 5.80986 6.37523 5.53685 6.31531 5.36681C6.05763 4.63551 5.83933 4.02334 5.6618 3.66676Z" fill="white"/>
<defs>
<linearGradient id="paint0_linear_3754_2910" x1="15" y1="2" x2="-3.8743e-07" y2="16" gradientUnits="userSpaceOnUse">
<stop stop-color="#5BD066"/>
<stop offset="1" stop-color="#27B43E"/>
</linearGradient>
</defs>
</svg>
